<?xml version="1.0" encoding="utf-8"?>
<!-- Generator: Adobe Illustrator 28.3.0, SVG Export Plug-In . SVG Version: 6.00 Build 0)  -->
<svg version="1.1" id="Camada_1" xmlns="http://www.w3.org/2000/svg" xmlns:xlink="http://www.w3.org/1999/xlink" x="0px" y="0px"
	 viewBox="0 0 1920 1080" style="enable-background:new 0 0 1920 1080;" xml:space="preserve">
<style type="text/css">
	.st0{fill:none;}
	.st1{fill:#D06C07;}
	.st2{fill:#0B3355;}
	.st3{fill:#FEFEFE;}
</style>
<g>
	<g>
		<path class="st0" d="M1471.91,540.5c0,168.97-0.01,337.94,0.09,506.91c0,3.75-0.84,4.59-4.59,4.59
			c-338.27-0.1-676.54-0.1-1014.81,0c-3.75,0-4.59-0.84-4.59-4.59c0.1-338.27,0.1-676.54,0-1014.82c0-3.75,0.84-4.59,4.59-4.59
			c338.27,0.1,676.54,0.1,1014.81,0c3.75,0,4.6,0.84,4.59,4.59C1471.89,201.89,1471.91,371.2,1471.91,540.5z M963.52,330.47
			c0.46,0.41,0.93,0.82,1.39,1.23c-0.84,1.03-1.66,2.08-2.53,3.08c-7.81,8.98-7.05,12.01,3.86,16.27
			c10.18,3.97,20.75,6.89,30.71,11.45c12.34,5.66,17.94,14.82,3.99,26.25c-6.94,5.69-13.8,11.51-20.37,17.63
			c-3.36,3.14-5.93,6.94-5.72,12.14c0.44,10.89,14.74,23.64,27,23.64c43.99,0,87.98-0.03,131.97-0.11c0.94,0,2.31,0.9,2.98-0.69
			c-16.26-16.28-32.51-32.54-48.74-48.8c-1.28-1.28-2.86-2.33-3.3-4.26c0.65-1.67,2.3-2.55,3.02-4.3c5.5-13.5,8.98-27.5,9.12-42.07
			c0.2-21.59-3.67-42.11-13.43-61.92c-6.04-12.26-14.12-22.61-22.33-33.03c-7.32-9.3-16.72-16.75-26.81-22.85
			c-47.71-28.81-96.73-30.8-144.64-2.17c-50.15,29.97-75.98,86.15-62.48,145.42c1.65,7.23,3.39,14.73,8.08,20.92
			c-3.08,5.03-7.78,8.59-11.84,12.69c-13.41,13.53-26.97,26.89-40.96,40.8c39.25,0,77.53,0,115.9,0
			c-4.84-17.35,3.13-24.67,14.31-32.23c5.79-3.91,12.2-6.73,18.58-9.53c10.91-4.79,22.21-8.86,32.01-15.82
			c11.9-8.45,11.34-15.16-1.41-21.94c-5.56-2.96-11.43-5.42-16.34-9.48c-4.33-3.57-4.45-8.93-0.13-12.27
			C950.93,336.29,956.75,332.49,963.52,330.47z M1256.53,563.83c0.32,2.24,0.58,3.99,0.81,5.75c0.22,1.69,0.87,2.8,2.86,2.48
			c6.7-1.07,13.39-2.12,20.1-3.14c1.94-0.29,1.7-1.73,1.69-3.03c-0.01-1.09,0.42-2.82-1.19-2.8c-7.03,0.09-5.76-4.97-5.76-9.11
			c-0.04-25.64-0.08-51.28,0.05-76.91c0.02-3.66-0.82-4.56-4.53-3.63c-6.07,1.51-12.3,2.39-18.47,3.52
			c-1.85,0.34-3.99-0.19-4.23,2.93c-0.24,2.98,1.32,3.84,3.64,4.13c3.54,0.44,4.72,2.68,4.74,5.85c0.04,5.13,0.01,10.25,0.01,15.53
			c-1.7-0.25-2.86-0.38-4-0.6c-12.3-2.31-23.11,0.49-31.58,9.92c-8.24,9.18-10.22,20.5-8.33,32.14
			c2.89,17.82,15.36,26.88,31.38,24.29C1248.88,570.3,1252.16,566.56,1256.53,563.83z M961.63,513.31c-1.04-1.72-0.54-3.4-0.55-4.98
			c-0.05-10.49-0.08-20.98,0.02-31.48c0.02-2.49-0.37-3.5-3.29-3.15c-7.06,0.84-13.95,2.53-20.92,3.83
			c-1.58,0.29-3.2,0.41-3.03,2.91c0.15,2.17,0.69,3.35,3.03,3.66c3.08,0.4,5.1,1.83,5.09,5.48c-0.08,23.15-0.05,46.3-0.02,69.45
			c0,2.94-1.15,4.95-4.24,4.84c-3.14-0.12-2.78,1.68-2.93,3.81c-0.19,2.74,1.42,2.43,3.12,2.42c8.99-0.02,17.99,0.02,26.98-0.06
			c1.1-0.01,2.9,0.89,3.13-1.28c0.19-1.73-0.02-3.39-2.22-3.76c-3.56-0.59-4.7-3.08-4.71-6.24c-0.05-11.82-0.03-23.65,0.01-35.47
			c0-0.95,0.04-2.13,0.57-2.81c2.01-2.61,11.64-4.79,15.01-3.36c4.56,1.94,5.18,6.14,5.23,10.35c0.11,9.99-0.06,19.99,0.08,29.98
			c0.06,4.16-0.94,6.98-5.79,6.46c-2.7-0.29-2.39,1.44-2.38,3.14c0.01,1.72-0.2,3.15,2.46,3.11c9.82-0.16,19.65-0.13,29.48-0.03
			c2.21,0.02,2.49-1.06,2.34-2.75c-0.13-1.45,0.95-3.53-2.02-3.46c-4.61,0.12-5.32-2.92-5.29-6.65c0.08-11.16,0.1-22.32,0.08-33.47
			c-0.02-13.46-8.03-20.37-21.27-19.18C972.36,505.25,967.2,509.42,961.63,513.31z M774.17,478.95c-9.02,0-16.35-0.03-23.68,0.03
			c-1.43,0.01-3.53-0.96-3.49,2.02c0.03,2.2,0.1,3.98,2.98,4.07c5.48,0.19,7.19,3.22,7.13,8.53c-0.22,20.49-0.08,40.99-0.11,61.48
			c-0.01,7.32-0.25,7.79-7.65,8.74c-2.61,0.33-2.26,1.64-2.37,3.29c-0.13,2.01,0.37,3.02,2.69,3c12.5-0.09,24.99-0.09,37.49,0
			c2.27,0.02,2.6-0.97,2.86-2.93c0.51-3.87-2.12-3.86-4.57-4.15c-7.56-0.91-8.12-1.56-8.04-9.12c0.04-4.33,0.37-8.71-0.15-12.98
			c-0.55-4.48,1.2-5.25,5.13-4.93c8.55,0.7,16.45-1.67,23.68-6.15c10.41-6.45,15.81-18.18,13.92-29.79
			c-1.85-11.34-8.63-17.45-22.62-20.37C789.12,477.96,780.77,479.54,774.17,478.95z M595.06,478.93c-9.99,0-19.98-0.05-29.96,0.06
			c-1.43,0.02-3.81-1.32-3.97,1.96c-0.13,2.64,0.61,4.02,3.49,4.18c4.57,0.25,6.53,2.54,6.48,7.44c-0.22,21.14-0.09,42.28-0.1,63.42
			c0,6.08-0.97,7.47-7,7.8c-2.99,0.16-2.99,1.42-3.05,3.62c-0.06,2.27,0.87,2.75,2.94,2.74c11.82-0.08,23.64-0.06,35.45-0.03
			c1.65,0,3.1-0.04,2.76-2.28c-0.24-1.54,1.14-3.88-2.04-4.04c-1.13-0.06-2.23-0.69-3.37-0.81c-4.06-0.43-5.74-2.62-5.59-6.67
			c0.17-4.65-0.09-9.32,0.07-13.98c0.15-4.44-1.99-10.55,0.91-12.84c2.75-2.17,8.59-0.37,13.06-0.43c3.01-0.04,5.04,1.39,6.31,3.96
			c0.89,1.78,1.83,3.6,2.29,5.51c0.63,2.58,2.39,2.39,4.24,2.21c2.17-0.2,1.94-1.84,1.94-3.36c-0.02-8.16,0-16.31-0.04-24.47
			c-0.01-1.21,0.59-3-1.52-2.98c-1.78,0.02-3.98-0.94-4.79,2.03c-2.05,7.53-7.13,10.22-14.68,8.88c-1.61-0.29-3.33-0.16-4.98-0.03
			c-2.13,0.17-2.87-0.57-2.84-2.8c0.12-9.32,0.05-18.64,0.05-27.96c0-1.48-0.31-3.05,2.09-3.01c5.82,0.09,11.68-0.29,17.47,0.18
			c3.75,0.3,6.74,2.68,8.49,6.21c0.96,1.93,2.01,3.86,2.62,5.9c0.93,3.1,3.29,1.38,4.98,1.66c2.22,0.38,2.21-1.36,2.21-2.93
			c-0.01-5.16-0.21-10.33,0.07-15.48c0.18-3.29-1.13-3.78-4.04-3.73C615.03,479.04,605.04,478.94,595.06,478.93z M1084.95,491.87
			c0.03,0,0.06,0,0.1,0c0-2.33-0.37-4.74,0.08-6.98c0.74-3.71-1.02-4.93-4.19-5.77c-6.63-1.74-13.34-2.51-20.18-2.43
			c-15.61,0.18-28.94,5.38-38.86,17.86c-8.28,10.41-10.82,22.49-9.99,35.49c1.06,16.44,8.25,29.15,23.14,36.71
			c13.85,7.03,28.38,6.18,43.06,2.84c5.53-1.26,8.36-3.91,7.81-9.85c-0.29-3.13,0.3-6.34,0.02-9.48c-0.14-1.54,1.82-4.19-1.81-4.62
			c-2.84-0.33-3.82,0.93-4.82,3.49c-3.16,8.09-8.28,13.85-17.94,14.01c-10.54,0.17-16.55-6.13-20.89-14.42
			c-5.65-10.79-6.36-22.62-5.16-34.43c0.94-9.33,3.67-18.15,11.4-24.64c8.69-7.3,25.21-8,30.25,7.64c0.45,1.41,0.84,2.85,1.15,4.3
			c0.54,2.61,2.39,2.63,4.52,2.68c2.8,0.07,2.25-1.87,2.29-3.4C1085.01,497.86,1084.95,494.87,1084.95,491.87z M858.16,564.75
			c5.47,7.84,21.48,8.44,27.16,1.28c1.38-1.74-0.63-2.95-0.49-4.55c0.11-1.35-1.19-1-2.23-0.75c-4.67,1.09-5.71-1.3-5.62-5.48
			c0.19-9.65,0.17-19.31,0.03-28.96c-0.21-14.9-7.81-22.35-22.59-22.34c-7.4,0-14.35,1.92-20.99,5.07
			c-2.77,1.32-5.03,3.22-6.49,5.95c-2.2,4.12-1.11,9.69,2.21,11.51c3.96,2.16,8.65,0.16,10.91-4.8c0.68-1.48,1.01-3.14,1.4-4.74
			c0.62-2.58,0.95-5.36,4.36-5.77c3.58-0.43,7.28-0.36,9.5,2.87c3.5,5.1,3.33,11.23,2.25,16.78c-0.5,2.58-5.34,2.11-8.18,3.07
			c-2.8,0.95-5.79,1.31-8.62,2.2c-5.03,1.59-10.2,3.06-14.14,6.85c-5.11,4.92-6.62,10.98-4.5,17.67c2.02,6.35,6.97,9.54,13.33,10.42
			C843.87,572.19,851.65,570.59,858.16,564.75z M700.08,545.07c3.32,4.91,6.23,9.46,9.4,13.81c2.22,3.04,2.21,4.95-2.02,5
			c-3.02,0.04-2.31,2.02-2.51,3.74c-0.31,2.58,1.29,2.49,3.07,2.48c9.66-0.04,19.32,0.01,28.99-0.08c1.4-0.01,3.64,1.03,3.74-1.82
			c0.07-2.12,0.44-4.34-2.79-4.73c-4.7-0.56-7.58-3.86-9.99-7.52c-3.83-5.82-7.32-11.88-11.34-17.57c-1.86-2.64-1.4-4.4,0.4-6.55
			c3.42-4.08,6.87-8.14,10.03-12.4c2.46-3.32,5.37-5.92,9.5-6.32c3.3-0.32,2.36-2.5,2.54-4.31c0.26-2.63-1.54-2.4-3.25-2.4
			c-6,0.02-11.99-0.04-17.99,0.03c-1.46,0.02-3.51-0.87-3.69,1.95c-0.14,2.2,0,3.56,2.78,4.12c3.36,0.68,4.25,2.61,1.55,5.64
			c-3.03,3.4-5.63,7.18-8.55,10.97c-2.6-4.18-4.89-8.15-7.48-11.91c-1.75-2.53-1.82-4.33,1.51-4.88c2.9-0.49,2.12-2.48,2.06-4.14
			c-0.08-2.37-1.97-1.75-3.36-1.76c-9.16-0.04-18.32-0.06-27.49-0.02c-1.33,0.01-3.25-0.63-3.14,1.92c0.07,1.79-0.36,3.97,2.21,4.26
			c4.22,0.48,6.04,3.53,8.03,6.69c3.89,6.18,7.88,12.31,12.08,18.29c1.39,1.97,1.58,3.03-0.14,4.96c-3.86,4.33-7.3,9.04-10.97,13.55
			c-2.73,3.37-5.47,6.88-10.08,7.65c-2.92,0.49-1.96,2.54-2.09,4.17c-0.21,2.76,1.86,2.17,3.42,2.18
			c6.33,0.03,12.66,0.08,18.99-0.01c1.37-0.02,3.74,1.06,3.48-1.96c-0.18-2.04,0.2-4.31-3.3-4.28c-3.61,0.03-4.41-2.05-2.88-5.38
			C693.06,553.56,696.81,549.83,700.08,545.07z M1185.94,537.07c3.33,0,6.66,0,9.98,0c9.46,0,9.46,0,9.07-9.35
			c-0.54-12.82-10.49-23.27-22.98-23.73c-12.81-0.48-23.68,3.78-30.23,15.28c-6.82,11.99-6.99,24.77-0.94,37.09
			c9.35,19.02,37.17,20.55,51.91,3.47c0.92-1.07,1.29-1.81,0.62-3.43c-1.66-3.96-3.53-1.94-5.6-0.66
			c-13.46,8.32-25.28,4.35-29.33-9.85c-0.54-1.9-0.82-3.88-1.28-5.81c-0.59-2.46,0.38-3.14,2.81-3.07
			C1175.29,537.19,1180.62,537.07,1185.94,537.07z M639.26,683.51c-3.62-6.84-7.21-13.85-11.04-20.73
			c-1.31-2.36-1.05-3.47,1.29-4.99c6.83-4.42,9.34-10.95,8.03-18.91c-1.37-8.36-6.65-13.12-14.63-14.98
			c-9.52-2.21-19.22-0.44-28.83-1.02c-2.48-0.15-2.06,1.53-2.06,2.96c-0.01,18.48,0.03,36.96-0.07,55.44
			c-0.01,2.46,0.76,2.97,3.13,3.01c9.03,0.15,9.03,0.25,9.04-8.99c0-2.33,0-4.66,0-6.99c-0.01-7.86-0.02-7.74,7.83-7.36
			c2.04,0.1,2.83,0.97,3.56,2.57c1.39,3.01,3.32,5.82,4.32,8.94C622.84,681.76,627.97,687.26,639.26,683.51z M613.2,776.56
			c-3.97-7.22-7.63-14.03-11.45-20.75c-1.28-2.25-1.89-3.57,1.12-5.25c7.75-4.34,9.33-11.82,8.08-19.79
			c-1.16-7.38-6.03-11.94-13.27-13.89c-8.83-2.38-17.86-0.73-26.77-1.33c-3.71-0.25-5.11,0.68-5.04,4.83
			c0.28,16.13,0.11,32.27,0.11,48.41c0,8.35,0,8.22,8.42,8.19c2.74-0.01,3.86-0.63,3.7-3.56c-0.22-4.15-0.05-8.31-0.05-12.47
			c0-7.22,0-7.13,7.09-6.97c2.1,0.05,3.33,0.59,4.19,2.6c1.43,3.33,3.63,6.4,4.67,9.83C596.87,775.9,603.14,778.79,613.2,776.56z
			 M1120.86,514.21c0-2.18-0.06-3.58,0.01-4.98c0.21-4.23-0.88-6.03-5.77-4.64c-5.67,1.61-11.64,2.18-17.47,3.25
			c-1.69,0.31-4-0.79-4.08,2.71c-0.07,2.88,1.31,3.94,3.49,4.23c3.35,0.44,4.62,2.59,4.62,5.43c-0.01,12.8-0.18,25.6-0.37,38.41
			c-0.04,3.02-1.48,5.29-4.72,5.25c-2.88-0.04-2.58,1.6-2.69,3.5c-0.14,2.29,0.86,2.8,2.92,2.78c10.15-0.08,20.3-0.09,30.44-0.04
			c2,0.01,2.77-0.44,3.01-2.71c0.44-4.33-2.38-3.6-4.72-3.41c-3.89,0.33-5.47-0.6-5.18-5.12c0.54-8.45,0.18-16.96,0.25-25.44
			c0.02-2.66,0.03-5.34,0.42-7.96c0.5-3.4,2.89-5.83,5.77-7.03c2.94-1.23,3.54,2.07,4.88,3.82c3.36,4.37,10.31,3.23,13.19-2.1
			c2.35-4.35,1.13-10.42-2.71-13.55c-4.02-3.27-10.38-3.17-14.7,0.54C1125.24,509,1123.46,511.37,1120.86,514.21z M812.24,740.05
			c2.3-6.63-0.29-7.78-4.68-7.17c-0.65,0.09-1.34,0.1-1.99,0c-2.94-0.47-3.95,0.44-3.89,3.69c0.23,12.31,0.15,24.64,0.02,36.95
			c-0.03,2.47,0.4,3.79,3.2,3.43c1.47-0.19,3.02-0.24,4.48,0c3.3,0.54,3.84-1.01,3.77-3.9c-0.18-6.99-0.08-13.98-0.04-20.97
			c0.03-6.42,3.06-10.03,8.36-10.07c4.98-0.03,6.9,2.57,6.96,9.83c0.06,7.32,0.09,14.65-0.1,21.97c-0.06,2.44,0.68,3.35,3.07,3.14
			c1.49-0.13,3.03-0.24,4.49-0.01c3.69,0.6,4.38-1.1,4.27-4.41c-0.23-7.32-0.18-14.65-0.03-21.97c0.1-4.84,4.14-8.66,8.56-8.53
			c4.38,0.14,6.29,2.59,6.31,8.21c0.03,6.16,0.02,12.32,0.02,18.48c0,8.36,1.83,9.85,10.01,8.25c1.12-0.22,1.94-0.5,1.89-1.76
			c-0.46-11.28,1.35-22.67-1.18-33.83c-1.21-5.35-6.58-9.09-12.17-9.48c-6.85-0.47-11.83,2.85-15.76,8.29
			C832.6,729.61,822.89,729.15,812.24,740.05z M892.95,537.38c0,6.33-0.08,12.65,0.02,18.98c0.12,7.28,4.01,12.84,10.86,14.24
			c7.78,1.59,15.43,1.02,22.5-3.46c2.9-1.84,2.91-3.77,1.86-6.51c-1.42-3.73-3.44-0.56-4.72-0.23c-7.83,2.06-11.55-0.21-11.77-8.36
			c-0.32-11.64-0.1-23.3-0.28-34.95c-0.03-2.24,0.66-2.98,2.77-2.95c3.49,0.05,6.99-0.14,10.48-0.02c4.61,0.16,2.31-3.34,2.91-5.28
			c0.9-2.9-1.03-2.78-3-2.88c-4.28-0.22-10.33,1.92-12.38-0.88c-2.16-2.93-0.57-8.61-0.62-13.09c0-0.17,0.07-0.36,0.01-0.5
			c-0.62-1.46,1.65-3.94-1.35-4.47c-2.5-0.44-4.5-0.05-6.05,2.79c-3.78,6.94-8.8,13.19-16.17,16.33c-3.53,1.51-3.08,3.49-3.03,5.95
			c0.06,3.15,2.64,1.91,4.13,2.04c2.82,0.24,4.03,1.15,3.89,4.27C892.75,524.72,892.94,531.05,892.95,537.38z M1329.57,537.4
			c0.09,0,0.18,0,0.27,0c0,6.65-0.18,13.32,0.05,19.96c0.23,6.76,3.3,11.02,9.74,12.8c8.5,2.34,16.64,1.4,24.3-3.6
			c3.24-2.11,1.77-4.19,0.96-6.33c-1.08-2.85-2.94-0.28-3.99,0.02c-8.65,2.5-12.63-0.22-12.76-9.31
			c-0.12-7.99-0.06-15.98-0.04-23.97c0.01-3.99-1.4-9.11,0.54-11.68c2.32-3.07,7.77-1.1,11.83-1.09c3.51,0.01,3.54-1.61,3.6-4.24
			c0.07-2.86-0.5-4.2-3.78-4.12c-3.93,0.1-9.49,1.84-11.4-0.67c-2.03-2.66-0.68-7.91-0.8-12.03c-0.01-0.5,0.13-1.03,0.01-1.49
			c-0.4-1.57,1.47-3.99-1.19-4.63c-2.43-0.59-4.46-0.19-6.02,2.74c-3.79,7.12-8.79,13.39-16.49,16.7c-2.2,0.94-3.68,1.51-3.33,4.44
			c0.36,3.04,2.09,3.35,4.4,3.27c3.33-0.11,4.37,1.36,4.19,4.73C1329.35,525.07,1329.57,531.24,1329.57,537.4z M704.08,648.28
			c1.82-7.12-1.8-7.61-6.93-7.54c-3.66,0.06-4.28,1.14-4.24,4.48c0.18,15.65,0.08,31.3,0.08,46.95c0,8.14,0,8,8.15,7.95
			c2.83-0.02,3.72-0.75,3.5-3.66c-0.33-4.31-0.14-8.65-0.18-12.98c-0.01-1.13-0.39-2.5,0.72-3.17c1.34-0.82,2,0.69,2.83,1.33
			c6.54,5,16.16,4.76,22.48-0.6c8.68-7.38,10.53-24.57,3.62-33.7C726.47,637.27,714.05,637.37,704.08,648.28z M1065.89,653.44
			c0.03,20.95,12.21,32.59,33.09,31.61c10.37-0.49,19.92-8.62,21.84-18.58c0.16-0.82,0.42-1.61-0.33-2.23
			c-1.67-1.39-10.69,0.19-11.62,2.02c-5.09,9.97-16.68,11.67-25.01,4.26c-7.41-6.59-8.36-27.57,1.25-35.18
			c6.47-5.12,17.3-5.06,21.27,1.77c3.27,5.64,7.51,4.79,12.15,4.96c2.44,0.09,2.81-0.89,2.09-3.02c-2.66-7.89-7.65-13.7-15.7-15.99
			C1081.44,616.36,1064.52,634.82,1065.89,653.44z M1239.88,647.5c-6.46-8.33-13.88-9.63-22.15-5.64
			c-11.53,5.57-14.92,23.82-7.2,35.22c6.57,9.71,22.66,11.76,29.18,0.36c0.08-0.13,0.59-0.02,1.02-0.02c0.05,0.64,0.2,1.3,0.12,1.92
			c-0.83,6.35,3.88,4.54,7.15,4.92c4.65,0.54,2.98-2.96,2.99-4.98c0.1-16.8,0.06-33.61,0.07-50.41c0-7.13,0.01-6.97-7.38-7.11
			c-3.05-0.06-3.99,0.7-3.87,3.83C1240.06,632.53,1239.88,639.46,1239.88,647.5z M1313.15,532.99c0.04,0,0.08,0,0.11,0
			c0-8.15-0.18-16.3,0.08-24.44c0.11-3.42-1.22-3.97-4.06-3.41c-6.63,1.31-13.26,2.6-19.91,3.78c-1.53,0.27-2.51,0.7-2.49,2.4
			c0.01,1.69-0.15,3.4,2.22,3.73c4.91,0.68,5.88,4.1,5.75,8.32c-0.35,11.59-0.73,23.19-0.95,34.79c-0.06,3.49-0.96,5.88-4.93,5.77
			c-2.86-0.08-1.95,1.99-2.11,3.47c-0.19,1.77,0.29,2.74,2.41,2.72c9.81-0.09,19.62-0.09,29.43-0.02c2.22,0.02,2.42-1.21,2.29-2.85
			c-0.12-1.49,0.69-3.46-2.18-3.35c-4.81,0.17-5.68-3.06-5.67-6.96C1313.17,548.95,1313.15,540.97,1313.15,532.99z M660.77,533.79
			c0.01,0,0.01,0,0.02,0c0-8.33-0.13-16.66,0.06-24.98c0.08-3.58-1.17-4.2-4.44-3.48c-6.44,1.42-12.94,2.52-19.44,3.64
			c-1.85,0.32-3.07,0.72-3,3.02c0.06,2,0.51,2.94,2.73,3.16c3.47,0.34,5.26,2.51,5.25,6.08c-0.02,12.16,0.06,24.32-0.07,36.47
			c-0.04,3.38-1.24,6.38-5.44,6.23c-3.1-0.11-2.31,1.97-2.46,3.67c-0.17,1.97,0.7,2.56,2.6,2.54c9.66-0.07,19.32-0.11,28.98,0.01
			c2.43,0.03,2.72-1.12,2.57-3.03c-0.12-1.58,0.47-3.47-2.32-3.21c-4.12,0.39-5.07-2.17-5.06-5.63
			C660.79,550.11,660.77,541.95,660.77,533.79z M773.7,678.1c-1.07,5.69,1.6,6.87,6.11,6.21c0.81-0.12,1.67-0.06,2.49,0.03
			c2.21,0.24,3.06-0.64,2.63-2.86c-1.64-8.58-0.61-17.25-0.81-25.87c-0.2-8.42-5.37-14.61-13.69-15.58
			c-3.28-0.38-6.67-0.38-9.96-0.04c-6.7,0.68-12.91,6.26-13.49,11.85c-0.11,1.02-0.87,2.28,0.59,3.09
			c2.38,1.32,8.92-0.57,10.65-3.11c3.34-4.93,10.95-5.04,13.87-0.2c2.02,3.34,1.07,5.38-2.78,5.76c-5.91,0.58-11.85,0.93-17.25,3.79
			c-5.39,2.85-8.18,8.6-6.86,14.16c1.32,5.57,6.26,9.31,12.27,9.8C764.05,685.65,769.49,683.9,773.7,678.1z M1091.8,746.41
			c0.01,0,0.01,0,0.02,0c0,7.49,0,14.98,0,22.46c0,8.25-0.01,8.14,8.53,8.08c2.72-0.02,3.8-0.61,3.65-3.56
			c-0.25-5.15,0.14-10.33-0.16-15.47c-0.22-3.7,0.57-5.36,4.74-4.99c4.62,0.42,9.33-0.17,13.96,0.17c4.7,0.35,3.38-2.84,3.46-5.19
			c0.08-2.49,0.99-5.44-3.6-5.1c-5.13,0.37-10.31,0.09-15.47,0.07c-1.44,0-3.11,0.4-3.02-2.04c0.16-4.79-1.17-10.3,0.8-14.13
			c1.32-2.56,7.38-0.5,11.3-0.79c1.66-0.12,3.33-0.03,4.99-0.04c7.47-0.01,7.31,0,7.12-7.52c-0.07-2.66-1.05-2.77-3.23-2.75
			c-9.82,0.11-19.64,0.17-29.45-0.1c-3.28-0.09-3.78,1-3.72,3.94C1091.93,728.43,1091.8,737.42,1091.8,746.41z M891.65,715.5
			c1.59,2.98,2.82,5.61,4.33,8.08c9.5,15.46,19.21,30.83,15.41,50.36c-0.4,2.06,0.43,3.15,2.71,2.97c1.49-0.12,3.03-0.23,4.48,0.01
			c4.36,0.72,6.05-0.79,5.39-5.33c-2.13-14.69,2.08-27.67,10.45-39.72c3.43-4.93,5.85-10.56,8.98-16.31c-3.01,0-5.34,0.31-7.55-0.07
			c-4.18-0.7-6.23,1.2-7.9,4.79c-3.03,6.53-6.47,12.86-9.99,19.78c-4.01-7.68-7.73-14.8-11.43-21.94c-0.74-1.43-1.04-2.93-3.43-2.7
			C899.54,715.76,895.92,715.5,891.65,715.5z M759.39,770.29c1.35,2.77-1.14,7.72,4.54,6.65c1.29-0.24,2.68-0.18,3.99,0.01
			c2.99,0.44,3.45-1.22,3.01-3.53c-1.4-7.44-1.09-14.99-0.65-22.43c0.81-13.75-8.93-20.16-21.28-19.07
			c-7.61,0.67-14.14,5.34-15.7,11.16c-0.32,1.2-0.96,2.63,0.34,3.65c1.8,1.42,9.12-0.19,10.54-2.25c2.37-3.41,7.38-5,11-3.23
			c2.78,1.36,4.23,3.78,3.75,6.95c-0.51,3.34-3.19,1.4-4.79,1.59c-5.77,0.68-11.53,1.18-16.75,4.06
			c-7.37,4.06-8.84,13.94-2.97,19.93C740.48,779.99,751.93,778.58,759.39,770.29z M1321.36,757.41c0,0.01,0,0.01,0,0.02
			c4.16,0,8.32,0,12.48,0c1.52,0,2.81,0.09,3.01-2.2c0.74-8.46-4.46-18.06-11.83-21.34c-9.48-4.22-20.42-1.43-26.2,6.7
			c-6.01,8.45-5.15,22.99,1.82,30.59c6.33,6.9,19.24,8.29,27.62,3.19c3.62-2.2,5.74-5.39,7.33-9.12c0.42-0.97,0.68-2.38-0.64-2.22
			c-3.8,0.47-8.1-2.05-11.31,2.48c-2.51,3.54-6.72,3.38-10.54,2.43c-3.49-0.87-5.42-3.38-6.34-6.95c-0.81-3.14,0.3-3.74,3.12-3.61
			C1313.7,757.54,1317.53,757.41,1321.36,757.41z M935.29,685.07c13.6,0.01,22.76-9.1,22.77-22.65c0.01-13.19-9.19-22.5-22.25-22.51
			c-13.76-0.01-23.13,9.01-23.28,22.39C912.37,675.71,921.72,685.06,935.29,685.07z M641.71,757.3c0,0.04,0,0.08,0,0.12
			c4.16,0,8.32,0,12.47,0c1.51,0,2.87,0.21,2.99-2.13c0.6-12.16-5.75-23.03-19.9-23.38c-12.76-0.31-21.56,10.02-21.52,22.78
			c0.04,12.64,8.06,25.43,27,22.17c6.02-1.03,10.45-4.95,13.08-10.54c0.41-0.86,1.63-3.21-0.41-3.15c-3.62,0.12-7.65-2.1-10.84,2.29
			c-2.56,3.53-6.91,3.61-10.98,2.46c-3.8-1.06-5.27-4.19-6.27-7.62c-0.62-2.11,0.1-3.08,2.4-3.03
			C633.73,757.37,637.72,757.3,641.71,757.3z M983.21,754.57c0.54-14.18-11.16-22.91-22.86-22.71c-12.68,0.22-22.39,10-22.42,22.94
			c-0.02,13.35,9.31,22.45,23.08,22.51C974.03,777.37,983.23,767.95,983.21,754.57z M865.64,623.67
			c3.93,7.05,7.34,14.46,11.92,21.06c6.84,9.87,9.46,20.38,8.39,32.26c-0.66,7.25-0.12,7.03,7.07,7.37c4.14,0.2,5.68-0.94,5.09-5.14
			c-2.1-14.83,1.84-28.11,10.55-40.13c0.68-0.93,1.18-2,1.73-3.02c2.29-4.25,4.58-8.51,7.09-13.18c-3.43,0-6.12,0.28-8.73-0.07
			c-3.35-0.45-4.92,0.97-6.27,3.88c-2.86,6.16-6.08,12.14-9.21,18.17c-0.35,0.67-0.02,1.86-1.12,1.96c-1.21,0.1-1.58-0.94-2-1.85
			c-1.73-3.73-3.84-7.34-5.13-11.22C881.87,624.35,876.06,620.15,865.64,623.67z M1184.81,665.04c4.16,0,8.33-0.05,12.49,0.02
			c1.71,0.03,2.71-0.14,2.76-2.33c0.15-6.74-1.25-12.83-6.32-17.65c-5.9-5.63-13-6.34-20.41-4.43c-8.83,2.29-13.25,8.79-15.17,17.32
			c-1.87,8.33,2.18,18.95,9.13,23.81c6.67,4.67,17.78,4.54,24.94-0.24c3.01-2.01,5.04-4.82,6.48-8.03c0.36-0.79,1.37-2.94-0.28-2.79
			c-3.71,0.33-7.99-3.04-11.15,2.11c-2.55,4.17-7.32,3.66-11.34,2.82c-3.42-0.71-5.13-3.58-6.15-7.1c-0.98-3.38,0.33-3.63,3.01-3.54
			C1176.81,665.15,1180.82,665.05,1184.81,665.04z M684.82,670.77c-7.94-0.38-7.94-0.38-13.82,3.72c-4.54,3.17-12.06,1.4-15.14-3.26
			c-1.18-1.79-1-3.57-0.62-5.17c0.47-1.97,2.54-0.93,3.85-0.95c7.5-0.11,14.99-0.01,22.49-0.11c1.26-0.02,3.29,0.92,3.52-1.5
			c1.02-10.82-4.27-22.03-16.85-23.56c-13.19-1.6-23.09,6.53-24.97,20.52c-1.4,10.46,5.52,21.96,15.74,24.08
			C669.81,686.79,680.88,684.2,684.82,670.77z M1018.43,768.96c0.9,8.48,0.89,8.36,8.51,8.06c2.44-0.1,3.09-0.91,3.07-3.22
			c-0.09-12.65-0.05-25.31-0.06-37.96c0-0.96,0.33-2.58-0.67-2.66c-3.47-0.27-7.11-0.71-10.4,0.09c-1.98,0.48-0.75,3.55-0.86,5.43
			c-0.45,7.45,0.88,14.99-0.76,22.37c-1.19,5.34-4.43,7.65-9.17,6.8c-4.53-0.81-6.09-4.03-6.08-8.36
			c0.02-6.16-0.13-12.32-0.15-18.48c-0.03-8.77-0.73-9.35-9.5-8.15c-1.63,0.22-2.32,0.64-2.27,2.4c0.31,10.13-0.67,20.31,0.87,30.4
			c0.91,5.96,5.59,10.58,10.94,11.33C1008.68,777.96,1014.45,776.61,1018.43,768.96z M1243.84,770.18c1.21,7.58-0.97,6.66,7.91,6.69
			c0.5,0,1-0.03,1.5,0c1.97,0.14,2.35-0.67,2.33-2.66c-0.13-12.8-0.05-25.6-0.06-38.4c0-0.93,0.54-2.53-0.57-2.63
			c-3.29-0.32-6.75-0.73-9.91-0.05c-2.33,0.5-0.98,3.4-1.1,5.2c-0.55,7.93,1,15.96-1.12,23.81c-1.11,4.09-3.97,5.88-8.15,5.8
			c-3.88-0.08-6.04-1.93-6.81-5.79c-0.45-2.29-0.88-4.53-0.86-6.88c0.05-6.15-0.12-12.31,0.08-18.46c0.09-2.87-0.43-4.49-3.73-3.93
			c-1.13,0.19-2.35,0.18-3.48,0c-3.31-0.52-4.15,0.84-4.06,4.06c0.23,8.14,0.1,16.29,0.06,24.44c-0.01,3.22,0.69,6.25,2.31,9.01
			C1223.62,779.64,1236.25,779.53,1243.84,770.18z M993.49,677.54c0.72,6.73,0.73,6.49,7.26,6.85c3.58,0.19,4.43-0.91,4.36-4.36
			c-0.23-10.65-0.09-21.31-0.09-31.97c0-7.16-0.02-6.88-7.28-7.28c-3.97-0.22-4.65,1.1-4.54,4.7c0.22,7.15,0.07,14.32-0.25,21.47
			c-0.27,5.96-3.44,9.08-8.45,8.96c-4.61-0.11-7.34-3.44-7.42-9.31c-0.09-5.99-0.02-11.99-0.02-17.98c0-8.08,0-7.98-8.32-7.82
			c-2.27,0.05-3.14,0.41-3.07,2.96c0.23,8.65,0.11,17.31,0.25,25.97c0.13,8.08,3.38,12.8,9.97,14.85
			C982.82,686.74,988.11,684.74,993.49,677.54z M1163.84,770.25c0.18,1.3,0.38,2.12,0.4,2.95c0.18,6.29,4.96,3.07,7.76,3.62
			c4.01,0.8,3.01-2.38,3.01-4.47c0.04-11.65-0.19-23.31,0.11-34.95c0.15-5.73-3.61-4.15-6.69-4.54c-3.64-0.46-4.67,0.71-4.68,4.52
			c-0.01,8.11,1.13,16.29-0.87,24.35c-1.09,4.38-3.9,6.31-8.32,6.22c-4.26-0.09-6.06-2.43-6.72-6.44
			c-1.34-8.12-0.59-16.27-0.57-24.4c0.01-3.04-0.3-4.81-3.87-4.22c-1.13,0.19-2.35,0.18-3.49,0c-3.25-0.5-4.2,0.75-4.09,4.03
			c0.25,7.81,0.06,15.64,0.08,23.47c0.02,8.4,3.11,13.61,9.4,15.93C1152.36,778.91,1158.16,777.08,1163.84,770.25z M684.13,777.27
			c9.31,0.1,17.31-5.05,19.84-12.97c0.29-0.92,1.44-2.78,0.34-3.03c-2.87-0.65-5.9-0.56-8.87-0.77c-1.88-0.13-1.79,1.51-2.45,2.57
			c-2.07,3.33-4.89,5.13-9.06,4.89c-3.77-0.22-6.33-2.11-7.9-5.19c-2.73-5.34-2.76-10.91-0.07-16.3c3.18-6.39,12.39-7.81,15.38-1.89
			c2.37,4.69,5.49,4.36,9.36,4.51c3.42,0.14,4.11-1.19,3.05-4.08c-2.13-5.77-5.88-10.15-11.81-11.97
			c-8.98-2.75-17.09-1.03-23.58,6.05c-6.98,7.61-6.64,16.73-3.94,25.66C666.68,772.28,675.31,777.18,684.13,777.27z M1296.96,636.1
			c0.03-7.6-0.46-7.67-6.06-8.31c-6.76-0.77-4.86,3.7-5.02,7.1c-0.04,0.83-0.11,1.68,0.01,2.49c0.44,2.88-0.78,3.97-3.58,3.45
			c-3.58-0.67-3.63,1.56-3.45,4.1c0.17,2.47-0.97,5.81,3.63,5.04c3.05-0.51,3.5,1.08,3.43,3.68c-0.16,5.65,0.34,11.34-0.12,16.96
			c-0.91,11.21,10.27,17.08,20.27,13.49c4.22-1.52,0.97-4.95,1.15-7.51c0.19-2.74-1.26-2.03-3.02-1.79c-5.07,0.7-7.06-1.1-7.17-6.24
			c-0.09-4.32,0.26-8.67-0.1-12.97c-0.37-4.34,0.74-6.53,5.47-5.56c4.31,0.88,4.57-1.57,4.72-5.05c0.15-3.73-1.24-4.61-4.51-4.16
			C1298.56,641.39,1295.53,640.75,1296.96,636.1z M1193.62,720.84c-5.36-1.58-6.44,1.31-5.75,5.95c0.12,0.81-0.08,1.68,0.03,2.49
			c0.38,2.72-0.55,4.15-3.47,3.6c-4.2-0.8-3.54,2.07-3.52,4.54c0.03,2.45-0.69,5.39,3.52,4.6c2.89-0.54,3.64,0.74,3.52,3.52
			c-0.22,5.32,0.35,10.7-0.15,15.98c-1.1,11.54,7.54,17.1,18.9,15.22c2.42-0.4,4.25-1.66,3.06-4.29c-0.93-2.05,1.32-6.34-4.14-5.63
			c-5.22,0.68-6.53-0.9-6.6-6.1c-0.06-4.5,0.38-9.04-0.12-13.48c-0.53-4.68,1.3-5.91,5.48-5.22c3.11,0.51,4.66-0.16,4.69-4.02
			c0.04-4.1-0.99-5.91-5.16-5.1c-4.31,0.84-5.63-1.08-4.91-5.08c0.12-0.65-0.09-1.35,0.03-1.99
			C1199.83,721.51,1198.27,719.62,1193.62,720.84z M826.95,646.75c1.12-5.11-0.93-6.69-5.47-5.88c-0.64,0.11-1.34,0.1-1.99,0
			c-2.9-0.44-3.97,0.35-3.89,3.67c0.27,10.96,0.09,21.94,0.09,32.91c0,6.89,0,6.68,7.06,6.95c3.58,0.14,4.53-0.98,4.36-4.43
			c-0.28-5.47-0.1-10.97-0.03-16.45c0.1-8.33,3.6-12.07,12-12.38c2.46-0.09,3.24-0.74,3-3.1c-0.17-1.64-0.17-3.34,0.03-4.98
			c0.35-2.86-1.1-3.25-3.5-3.19C833.53,640,829.94,642.44,826.95,646.75z M723.11,745.44c0-7.82,0-15.64,0-23.46
			c0-8.99-0.12-9.05-9-8.14c-1.64,0.17-2.32,0.48-2.32,2.27c0.07,19.46,0.09,38.93,0.02,58.39c-0.01,2.21,1,2.45,2.7,2.38
			c1.49-0.06,3.02-0.19,4.48,0.04c3.32,0.53,4.25-0.77,4.17-4.04C722.97,763.74,723.1,754.59,723.11,745.44z M1051.1,738.39
			c1.47-5.57-1.53-5.82-5.11-5.51c-1.16,0.1-2.34,0.13-3.5,0c-2.31-0.26-2.67,0.83-2.66,2.91c0.09,12.66,0.1,25.33-0.02,37.99
			c-0.02,2.34,0.47,3.43,2.98,3.15c1.48-0.16,3.03-0.23,4.49,0.02c3.3,0.56,3.91-0.98,3.82-3.9c-0.19-5.83-0.14-11.66-0.04-17.49
			c0.14-7.68,3.71-12.17,10.79-12.19c4.2-0.01,4.53-1.68,4.2-4.83c-0.12-1.15-0.17-2.36,0.02-3.49c0.47-2.86-1.01-3.39-3.39-3.15
			C1058.16,732.33,1054.61,734.49,1051.1,738.39z M1277.28,738.48c0.79-4.92-1.31-6.32-5.55-5.61c-0.97,0.16-2,0.12-2.99,0.01
			c-2.3-0.25-3.14,0.53-3.12,3.01c0.13,12.65,0.14,25.31,0.03,37.96c-0.02,2.44,0.74,3.31,3.11,3.09c1.49-0.14,3.03-0.24,4.49-0.01
			c3.24,0.51,3.92-0.92,3.82-3.89c-0.21-5.99-0.21-11.99-0.02-17.98c0.25-7.9,3.96-11.8,11.58-11.79c3.06,0.01,3.69-1.04,3.41-3.66
			c-0.15-1.48-0.19-3.02,0.03-4.49c0.51-3.3-1.4-3.56-3.8-3.2C1283.84,732.59,1280.21,734.62,1277.28,738.48z M1139.65,647.76
			c1.84-7.36-1.82-6.66-5.63-7.01c-4.78-0.44-5.3,1.5-5.2,5.5c0.25,10.29,0.09,20.59,0.09,30.89c0,7.12,0.02,6.86,7.27,7.19
			c3.6,0.16,4.01-1.21,3.91-4.19c-0.19-5.64-0.16-11.29-0.04-16.94c0.16-7.87,4.1-11.95,11.91-12.07c2.62-0.04,3.55-0.72,3.18-3.32
			c-0.21-1.46-0.21-3.01,0.02-4.47c0.47-3.04-0.96-3.67-3.64-3.45C1146.83,640.26,1143.17,642.34,1139.65,647.76z M1025.68,647.03
			c1.57-6.01-0.96-6.7-4.62-6.17c-0.81,0.12-1.69,0.15-2.49-0.01c-3.24-0.66-3.77,0.84-3.73,3.77c0.18,10.8,0.07,21.61,0.07,32.41
			c0,7.21,0.01,6.93,7.17,7.38c3.55,0.22,4.16-0.94,4.04-4.07c-0.22-5.48-0.08-10.97-0.06-16.45c0.03-8.61,3.45-12.2,12.16-12.86
			c1.03-0.08,2.71,0.59,2.7-1.2c-0.02-3.25,1.61-7.38-0.74-9.52c-1.94-1.75-5.7-0.25-8.47,1.06
			C1029.68,642.34,1028.38,644.08,1025.68,647.03z M1272.85,662.63c0-4.81,0-9.63,0-14.44c0-7.3-0.01-7.13-7.14-7.38
			c-3.32-0.12-4.53,0.51-4.44,4.24c0.27,11.61,0.17,23.24-0.08,34.85c-0.07,3.42,0.75,4.93,4.3,4.39c1.14-0.17,2.34-0.17,3.48,0
			c2.99,0.45,4.11-0.51,3.96-3.73C1272.67,674.59,1272.86,668.6,1272.85,662.63z M791.11,755.12c0-6.48-0.09-12.96,0.05-19.44
			c0.05-2.12-0.42-3.06-2.67-2.81c-1.48,0.16-3.01,0.18-4.48,0c-3.18-0.4-4.2,0.71-4.13,4.03c0.22,10.96,0.08,21.93,0.08,32.89
			c0,7.3,0,7.3,7.47,7.09c0.17,0,0.34-0.02,0.5,0c2.63,0.39,3.36-0.68,3.26-3.33C790.97,767.42,791.12,761.27,791.11,755.12z
			 M793.97,662.48c0,6.14,0.09,12.28-0.05,18.42c-0.06,2.45,0.44,3.77,3.23,3.38c1.46-0.21,3.01-0.22,4.47,0.02
			c3.23,0.54,3.79-0.87,3.73-3.81c-0.19-10.79-0.1-21.58-0.11-32.36c0-7.3,0-7.11-7.5-7.33c-3.09-0.09-3.97,0.69-3.85,3.77
			C794.14,650.52,793.96,656.51,793.97,662.48z M1302.43,475.94c-6.74,0-11.68,4.39-11.57,10.3c0.11,6.11,4.95,10.55,11.5,10.55
			c6.69,0,11.63-4.45,11.62-10.45C1313.98,480.39,1309.04,475.94,1302.43,475.94z M649.54,475.94c-6.44,0-11.66,4.73-11.53,10.45
			c0.13,6.05,4.92,10.28,11.71,10.33c6.39,0.05,11.37-4.56,11.41-10.56C661.17,480.23,656.3,475.94,649.54,475.94z M1329.01,677.94
			c0.07-4.04-3.04-7.43-6.97-7.59c-4.01-0.16-7.33,2.96-7.52,7.06c-0.2,4.5,2.76,7.63,7.22,7.63
			C1326.06,685.04,1328.93,682.23,1329.01,677.94z M1350.53,762.79c-4.46-0.07-7.67,2.99-7.67,7.32c0,3.98,3.18,6.95,7.47,6.97
			c3.99,0.02,7.57-3.3,7.55-7.01C1357.86,766.17,1354.5,762.85,1350.53,762.79z M800.39,634.72c3.48-0.03,6.65-3.23,6.69-6.74
			c0.04-3.73-3.18-6.96-6.99-7c-3.55-0.04-7.15,3.53-7.1,7.03C793.05,631.56,796.58,634.76,800.39,634.72z M786.1,726.92
			c3.59-0.15,7.09-3.68,6.99-7.05c-0.11-3.47-3.75-6.79-7.32-6.68c-3.79,0.11-6.9,3.33-6.81,7.05
			C779.05,724.01,782.33,727.07,786.1,726.92z M1274.01,628.07c0.08-3.49-3.34-7.01-6.92-7.13c-3.4-0.12-7.1,3.41-7.2,6.85
			c-0.1,3.61,3.17,6.95,6.86,7.01C1270.49,634.87,1273.93,631.68,1274.01,628.07z"/>
		<path class="st1" d="M835.3,388.31c-4.7-6.19-6.44-13.69-8.08-20.92c-13.49-59.27,12.34-115.45,62.48-145.42
			c47.9-28.63,96.93-26.64,144.64,2.17c10.09,6.09,19.49,13.55,26.81,22.85c8.21,10.42,16.29,20.77,22.33,33.03
			c9.76,19.81,13.63,40.33,13.43,61.92c-0.14,14.57-3.62,28.57-9.12,42.07c-0.71,1.75-2.37,2.63-3.02,4.3
			c-1.83-0.25-2.77-1.73-3.94-2.88c-20.23-19.92-40.5-39.79-60.65-59.79c-18.76-18.62-37.46-37.31-56.04-56.11
			c-4.45-4.51-4.21-4.78-8.7-0.29c-37.55,37.57-75.08,75.16-112.68,112.68C840.45,384.21,838.63,387.17,835.3,388.31z"/>
		<path class="st2" d="M835.3,388.31c3.33-1.14,5.15-4.11,7.46-6.4c37.6-37.52,75.13-75.11,112.68-112.68
			c4.49-4.49,4.25-4.22,8.7,0.29c18.58,18.8,37.27,37.49,56.04,56.11c20.15,20,40.43,39.87,60.65,59.79
			c1.17,1.15,2.11,2.63,3.94,2.88c0.44,1.93,2.02,2.98,3.3,4.26c16.23,16.26,32.48,32.52,48.74,48.8c-0.67,1.6-2.03,0.69-2.98,0.69
			c-43.99,0.08-87.98,0.11-131.97,0.11c-12.25,0-26.56-12.75-27-23.64c-0.21-5.2,2.35-9.01,5.72-12.14
			c6.56-6.12,13.42-11.94,20.37-17.63c13.95-11.43,8.34-20.59-3.99-26.25c-9.96-4.57-20.53-7.48-30.71-11.45
			c-10.91-4.26-11.67-7.29-3.86-16.27c0.87-1,1.69-2.05,2.53-3.08c0.66-0.43,1.77-0.97,1.14-1.75c-0.79-0.98-1.69,0.21-2.53,0.53
			c-6.77,2.03-12.59,5.82-18.09,10.07c-4.32,3.34-4.2,8.7,0.13,12.27c4.91,4.05,10.78,6.52,16.34,9.48
			c12.75,6.78,13.31,13.48,1.41,21.94c-9.8,6.96-21.1,11.03-32.01,15.82c-6.39,2.8-12.79,5.62-18.58,9.53
			c-11.18,7.55-19.15,14.88-14.31,32.23c-38.37,0-76.66,0-115.9,0c13.99-13.91,27.56-27.27,40.96-40.8
			C827.53,396.9,832.22,393.35,835.3,388.31z"/>
		<path class="st2" d="M1256.53,563.83c-4.37,2.73-7.65,6.47-12.82,7.31c-16.02,2.59-28.49-6.47-31.38-24.29
			c-1.89-11.64,0.09-22.97,8.33-32.14c8.47-9.44,19.29-12.23,31.58-9.92c1.14,0.21,2.29,0.34,4,0.6c0-5.28,0.03-10.41-0.01-15.53
			c-0.02-3.17-1.2-5.41-4.74-5.85c-2.31-0.29-3.87-1.15-3.64-4.13c0.25-3.12,2.39-2.59,4.23-2.93c6.17-1.13,12.4-2.01,18.47-3.52
			c3.71-0.92,4.55-0.02,4.53,3.63c-0.13,25.64-0.09,51.28-0.05,76.91c0.01,4.14-1.27,9.2,5.76,9.11c1.61-0.02,1.18,1.71,1.19,2.8
			c0.01,1.3,0.24,2.74-1.69,3.03c-6.7,1.02-13.4,2.07-20.1,3.14c-1.99,0.32-2.64-0.79-2.86-2.48
			C1257.11,567.82,1256.85,566.08,1256.53,563.83z M1255.97,535.88c0-5.66,0.03-11.31-0.02-16.97c-0.01-1.26,0.41-2.59-0.75-3.72
			c-4.29-4.19-13.54-3.79-17.79,0.84c-7.74,8.43-7.2,33.53,0.89,41.6c0.24,0.23,0.42,0.52,0.69,0.72c3.41,2.6,7.06,3.46,11.14,1.6
			c3.91-1.79,6.36-4.23,5.93-9.11C1255.63,545.89,1255.96,540.87,1255.97,535.88z"/>
		<path class="st2" d="M961.63,513.31c5.57-3.89,10.73-8.06,17.95-8.71c13.24-1.19,21.26,5.72,21.27,19.18
			c0.02,11.16-0.01,22.32-0.08,33.47c-0.03,3.73,0.68,6.77,5.29,6.65c2.96-0.08,1.88,2.01,2.02,3.46c0.15,1.69-0.13,2.77-2.34,2.75
			c-9.82-0.1-19.65-0.13-29.48,0.03c-2.65,0.04-2.45-1.39-2.46-3.11c-0.01-1.7-0.32-3.43,2.38-3.14c4.85,0.52,5.85-2.3,5.79-6.46
			c-0.14-9.99,0.03-19.99-0.08-29.98c-0.05-4.22-0.67-8.42-5.23-10.35c-3.38-1.43-13.01,0.75-15.01,3.36
			c-0.53,0.68-0.57,1.86-0.57,2.81c-0.04,11.82-0.06,23.65-0.01,35.47c0.01,3.17,1.15,5.65,4.71,6.24c2.2,0.36,2.41,2.02,2.22,3.76
			c-0.23,2.17-2.03,1.27-3.13,1.28c-8.99,0.08-17.99,0.04-26.98,0.06c-1.69,0-3.3,0.32-3.12-2.42c0.15-2.13-0.2-3.93,2.93-3.81
			c3.09,0.12,4.24-1.9,4.24-4.84c-0.03-23.15-0.05-46.3,0.02-69.45c0.01-3.64-2.01-5.08-5.09-5.48c-2.34-0.31-2.88-1.49-3.03-3.66
			c-0.17-2.51,1.46-2.62,3.03-2.91c6.97-1.3,13.86-2.99,20.92-3.83c2.93-0.35,3.32,0.65,3.29,3.15c-0.1,10.49-0.07,20.98-0.02,31.48
			C961.09,509.91,960.59,511.59,961.63,513.31z"/>
		<path class="st2" d="M774.17,478.95c6.6,0.59,14.95-0.99,23.21,0.74c13.99,2.92,20.77,9.03,22.62,20.37
			c1.89,11.61-3.51,23.34-13.92,29.79c-7.23,4.48-15.13,6.85-23.68,6.15c-3.93-0.32-5.68,0.44-5.13,4.93
			c0.52,4.27,0.2,8.65,0.15,12.98c-0.08,7.56,0.48,8.21,8.04,9.12c2.45,0.29,5.08,0.28,4.57,4.15c-0.26,1.97-0.59,2.95-2.86,2.93
			c-12.5-0.09-24.99-0.09-37.49,0c-2.32,0.02-2.82-0.99-2.69-3c0.11-1.65-0.24-2.96,2.37-3.29c7.4-0.95,7.64-1.41,7.65-8.74
			c0.03-20.49-0.11-40.99,0.11-61.48c0.06-5.3-1.65-8.34-7.13-8.53c-2.89-0.1-2.95-1.88-2.98-4.07c-0.04-2.98,2.06-2.01,3.49-2.02
			C757.82,478.91,765.15,478.95,774.17,478.95z M777.37,507.51c0.01,0,0.01,0,0.02,0c0,5.83,0.06,11.66-0.03,17.49
			c-0.03,2.07,0.55,2.83,2.77,3c9.88,0.76,16.5-4.01,19.09-13.49c1-3.67,0.85-7.29,0.67-10.88c-0.64-12.24-7.19-17.98-19.28-16.65
			c-2.67,0.29-3.34,1.06-3.28,3.54C777.47,496.18,777.37,501.84,777.37,507.51z"/>
		<path class="st2" d="M595.06,478.94c9.99,0,19.98,0.11,29.96-0.06c2.9-0.05,4.21,0.45,4.04,3.73c-0.28,5.15-0.08,10.32-0.07,15.48
			c0,1.57,0.02,3.31-2.21,2.93c-1.69-0.29-4.05,1.43-4.98-1.66c-0.61-2.05-1.67-3.97-2.62-5.9c-1.75-3.53-4.74-5.91-8.49-6.21
			c-5.79-0.47-11.64-0.09-17.47-0.18c-2.4-0.04-2.09,1.53-2.09,3.01c0,9.32,0.07,18.64-0.05,27.96c-0.03,2.23,0.71,2.97,2.84,2.8
			c1.65-0.13,3.37-0.26,4.98,0.03c7.55,1.34,12.64-1.36,14.68-8.88c0.81-2.98,3.01-2.02,4.79-2.03c2.11-0.02,1.51,1.77,1.52,2.98
			c0.04,8.16,0.02,16.31,0.04,24.47c0,1.51,0.23,3.16-1.94,3.36c-1.85,0.17-3.61,0.36-4.24-2.21c-0.46-1.91-1.41-3.73-2.29-5.51
			c-1.28-2.56-3.3-3.99-6.31-3.96c-4.48,0.06-10.32-1.74-13.06,0.43c-2.9,2.29-0.76,8.41-0.91,12.84
			c-0.16,4.66,0.09,9.33-0.07,13.98c-0.15,4.05,1.53,6.24,5.59,6.67c1.14,0.12,2.24,0.75,3.37,0.81c3.18,0.16,1.8,2.5,2.04,4.04
			c0.35,2.23-1.1,2.28-2.76,2.28c-11.82-0.03-23.64-0.05-35.45,0.03c-2.07,0.01-3-0.47-2.94-2.74c0.06-2.19,0.06-3.45,3.05-3.62
			c6.03-0.33,7-1.72,7-7.8c0.02-21.14-0.11-42.28,0.1-63.42c0.05-4.89-1.91-7.18-6.48-7.44c-2.88-0.16-3.62-1.53-3.49-4.18
			c0.16-3.27,2.53-1.94,3.97-1.96C575.08,478.88,585.07,478.93,595.06,478.94z"/>
		<path class="st2" d="M1084.95,491.87c0,3,0.05,6-0.02,8.99c-0.04,1.53,0.52,3.47-2.29,3.4c-2.13-0.05-3.98-0.07-4.52-2.68
			c-0.3-1.45-0.69-2.89-1.15-4.3c-5.04-15.64-21.56-14.94-30.25-7.64c-7.73,6.49-10.46,15.31-11.4,24.64
			c-1.19,11.81-0.49,23.64,5.16,34.43c4.34,8.29,10.35,14.59,20.89,14.42c9.67-0.16,14.78-5.91,17.94-14.01
			c1-2.56,1.98-3.82,4.82-3.49c3.63,0.42,1.67,3.08,1.81,4.62c0.28,3.13-0.31,6.35-0.02,9.48c0.55,5.94-2.28,8.59-7.81,9.85
			c-14.68,3.34-29.21,4.19-43.06-2.84c-14.89-7.56-22.09-20.27-23.14-36.71c-0.84-13,1.71-25.08,9.99-35.49
			c9.92-12.48,23.25-17.68,38.86-17.86c6.84-0.08,13.55,0.69,20.18,2.43c3.16,0.83,4.93,2.06,4.19,5.77
			c-0.45,2.24-0.08,4.65-0.08,6.98C1085.02,491.87,1084.98,491.87,1084.95,491.87z"/>
		<path class="st2" d="M858.16,564.75c-6.51,5.84-14.28,7.44-22.69,6.27c-6.36-0.89-11.31-4.07-13.33-10.42
			c-2.13-6.69-0.62-12.75,4.5-17.67c3.94-3.79,9.1-5.26,14.14-6.85c2.82-0.89,5.82-1.26,8.62-2.2c2.85-0.96,7.68-0.5,8.18-3.07
			c1.08-5.55,1.25-11.68-2.25-16.78c-2.22-3.24-5.92-3.31-9.5-2.87c-3.41,0.41-3.74,3.19-4.36,5.77c-0.38,1.6-0.72,3.26-1.4,4.74
			c-2.27,4.96-6.95,6.97-10.91,4.8c-3.32-1.81-4.42-7.39-2.21-11.51c1.46-2.73,3.72-4.63,6.49-5.95c6.64-3.16,13.59-5.07,20.99-5.07
			c14.77,0,22.38,7.44,22.59,22.34c0.14,9.65,0.16,19.31-0.03,28.96c-0.08,4.18,0.95,6.57,5.62,5.48c1.04-0.24,2.34-0.6,2.23,0.75
			c-0.14,1.61,1.87,2.81,0.49,4.55C879.64,573.2,863.62,572.59,858.16,564.75z M857.95,547.99c0-0.66,0-1.33,0-1.99
			c0-7.79,0-7.79-7.46-4.91c-6.52,2.51-9.97,7.45-9.38,13.62c0.38,3.98,2.22,6.36,6.68,6.33
			C855.82,560.99,857.95,558.38,857.95,547.99z"/>
		<path class="st2" d="M700.08,545.07c-3.28,4.77-7.03,8.49-9.28,13.37c-1.53,3.33-0.73,5.41,2.88,5.38
			c3.49-0.03,3.11,2.23,3.3,4.28c0.27,3.01-2.11,1.93-3.48,1.96c-6.33,0.09-12.66,0.05-18.99,0.01c-1.56-0.01-3.63,0.58-3.42-2.18
			c0.12-1.63-0.83-3.68,2.09-4.17c4.61-0.77,7.35-4.28,10.08-7.65c3.66-4.52,7.1-9.22,10.97-13.55c1.73-1.94,1.53-2.99,0.14-4.96
			c-4.2-5.97-8.19-12.1-12.08-18.29c-1.99-3.16-3.81-6.21-8.03-6.69c-2.57-0.29-2.14-2.47-2.21-4.26c-0.1-2.55,1.81-1.91,3.14-1.92
			c9.16-0.04,18.32-0.01,27.49,0.02c1.39,0.01,3.28-0.61,3.36,1.76c0.05,1.66,0.83,3.66-2.06,4.14c-3.33,0.56-3.26,2.35-1.51,4.88
			c2.59,3.76,4.88,7.73,7.48,11.91c2.92-3.78,5.52-7.56,8.55-10.97c2.7-3.03,1.81-4.96-1.55-5.64c-2.78-0.56-2.92-1.92-2.78-4.12
			c0.18-2.82,2.23-1.93,3.69-1.95c6-0.07,11.99-0.01,17.99-0.03c1.72-0.01,3.51-0.24,3.25,2.4c-0.18,1.82,0.76,3.99-2.54,4.31
			c-4.13,0.4-7.04,3-9.5,6.32c-3.17,4.27-6.62,8.33-10.03,12.4c-1.8,2.15-2.27,3.91-0.4,6.55c4.02,5.69,7.51,11.74,11.34,17.57
			c2.41,3.66,5.29,6.95,9.99,7.52c3.23,0.39,2.86,2.6,2.79,4.73c-0.09,2.85-2.34,1.81-3.74,1.82c-9.66,0.09-19.32,0.04-28.99,0.08
			c-1.78,0.01-3.38,0.1-3.07-2.48c0.2-1.72-0.51-3.7,2.51-3.74c4.23-0.05,4.24-1.97,2.02-5
			C706.31,554.53,703.41,549.98,700.08,545.07z"/>
		<path class="st2" d="M1185.94,537.07c-5.32,0-10.65,0.12-15.97-0.05c-2.43-0.08-3.4,0.61-2.81,3.07c0.46,1.93,0.74,3.9,1.28,5.81
			c4.05,14.21,15.87,18.18,29.33,9.85c2.07-1.28,3.94-3.3,5.6,0.66c0.68,1.62,0.31,2.36-0.62,3.43
			c-14.74,17.07-42.56,15.55-51.91-3.47c-6.05-12.32-5.89-25.1,0.94-37.09c6.55-11.51,17.42-15.76,30.23-15.28
			c12.5,0.47,22.44,10.91,22.98,23.73c0.39,9.35,0.39,9.35-9.07,9.35C1192.6,537.07,1189.27,537.07,1185.94,537.07z M1176.62,529.04
			c1,0,2,0,2.99,0c7.91,0,8.74-1,6.85-8.71c-0.51-2.06-1.15-4.19-2.21-6c-2.07-3.54-7.78-4.47-10.71-1.99
			c-2.2,1.86-3.65,4.16-4.56,6.93c-3.2,9.78-3.25,9.77,6.64,9.77C1175.96,529.04,1176.29,529.04,1176.62,529.04z"/>
		<path class="st2" d="M639.26,683.51c-11.28,3.75-16.42-1.74-19.41-11.05c-1-3.12-2.94-5.93-4.32-8.94
			c-0.74-1.6-1.52-2.47-3.56-2.57c-7.85-0.38-7.84-0.49-7.83,7.36c0,2.33,0,4.66,0,6.99c-0.01,9.24-0.01,9.13-9.04,8.99
			c-2.37-0.04-3.14-0.55-3.13-3.01c0.1-18.48,0.05-36.96,0.07-55.44c0-1.43-0.42-3.11,2.06-2.96c9.6,0.58,19.31-1.2,28.83,1.02
			c7.97,1.85,13.25,6.61,14.63,14.98c1.31,7.96-1.2,14.49-8.03,18.91c-2.35,1.52-2.61,2.63-1.29,4.99
			C632.05,669.65,635.63,676.66,639.26,683.51z M604.13,641.97c-0.01,8.93-0.01,8.93,9.09,8.94c1.33,0,2.67,0.1,3.99,0
			c4.89-0.37,7.74-3.49,7.78-8.42c0.04-5.85-3.76-9.34-10.28-9.44C604.14,632.9,604.14,632.9,604.13,641.97z"/>
		<path class="st2" d="M613.2,776.56c-10.06,2.23-16.32-0.67-19.2-10.17c-1.04-3.43-3.24-6.49-4.67-9.83
			c-0.86-2.01-2.1-2.55-4.19-2.6c-7.1-0.17-7.09-0.26-7.09,6.97c0,4.16-0.17,8.33,0.05,12.47c0.16,2.93-0.97,3.55-3.7,3.56
			c-8.41,0.04-8.42,0.16-8.42-8.19c0-16.14,0.17-32.28-0.11-48.41c-0.07-4.15,1.33-5.08,5.04-4.83c8.91,0.61,17.94-1.04,26.77,1.33
			c7.24,1.95,12.11,6.51,13.27,13.89c1.25,7.97-0.33,15.45-8.08,19.79c-3.01,1.69-2.4,3-1.12,5.25
			C605.56,762.53,609.23,769.34,613.2,776.56z M578.03,734.82c0,9.1,0,9.1,8.87,9.08c1.33,0,2.67,0.13,3.98-0.03
			c4.93-0.61,8.34-4.7,8.11-9.6c-0.21-4.56-3.96-8.05-8.87-8.24c-1.16-0.05-2.32,0-3.49,0
			C578.03,726.04,578.03,726.04,578.03,734.82z"/>
		<path class="st2" d="M1120.86,514.21c2.6-2.84,4.39-5.2,6.59-7.09c4.32-3.71,10.68-3.81,14.7-0.54c3.84,3.13,5.05,9.2,2.71,13.55
			c-2.88,5.33-9.83,6.47-13.19,2.1c-1.34-1.74-1.94-5.05-4.88-3.82c-2.87,1.2-5.27,3.64-5.77,7.03c-0.38,2.62-0.39,5.31-0.42,7.96
			c-0.07,8.48,0.29,16.99-0.25,25.44c-0.29,4.52,1.29,5.45,5.18,5.12c2.33-0.2,5.16-0.92,4.72,3.41c-0.23,2.27-1,2.72-3.01,2.71
			c-10.15-0.05-20.3-0.04-30.44,0.04c-2.06,0.02-3.06-0.49-2.92-2.78c0.12-1.9-0.19-3.54,2.69-3.5c3.24,0.04,4.68-2.22,4.72-5.25
			c0.18-12.8,0.35-25.6,0.37-38.41c0-2.84-1.27-4.98-4.62-5.43c-2.18-0.29-3.56-1.35-3.49-4.23c0.08-3.5,2.39-2.4,4.08-2.71
			c5.83-1.07,11.8-1.64,17.47-3.25c4.88-1.39,5.98,0.42,5.77,4.64C1120.8,510.62,1120.86,512.03,1120.86,514.21z"/>
		<path class="st2" d="M812.24,740.05c10.65-10.9,20.37-10.43,25.58,0.14c3.93-5.44,8.91-8.76,15.76-8.29
			c5.58,0.38,10.95,4.13,12.17,9.48c2.53,11.16,0.72,22.55,1.18,33.83c0.05,1.26-0.77,1.54-1.89,1.76
			c-8.18,1.59-10.01,0.11-10.01-8.25c0-6.16,0.01-12.32-0.02-18.48c-0.03-5.63-1.94-8.08-6.31-8.21c-4.42-0.14-8.46,3.68-8.56,8.53
			c-0.16,7.32-0.2,14.65,0.03,21.97c0.1,3.31-0.59,5.01-4.27,4.41c-1.46-0.24-3-0.13-4.49,0.01c-2.4,0.21-3.13-0.7-3.07-3.14
			c0.18-7.32,0.16-14.65,0.1-21.97c-0.06-7.26-1.97-9.86-6.96-9.83c-5.3,0.04-8.33,3.65-8.36,10.07
			c-0.03,6.99-0.14,13.99,0.04,20.97c0.07,2.89-0.47,4.45-3.77,3.9c-1.46-0.24-3.01-0.19-4.48,0c-2.8,0.36-3.22-0.96-3.2-3.43
			c0.12-12.32,0.21-24.64-0.02-36.95c-0.06-3.24,0.94-4.16,3.89-3.69c0.65,0.1,1.34,0.09,1.99,0
			C811.95,732.27,814.54,733.41,812.24,740.05z"/>
		<path class="st2" d="M892.94,537.38c0-6.33-0.19-12.66,0.08-18.97c0.13-3.12-1.08-4.03-3.89-4.27c-1.48-0.13-4.06,1.11-4.13-2.04
			c-0.05-2.47-0.5-4.45,3.03-5.95c7.37-3.15,12.39-9.39,16.17-16.33c1.55-2.84,3.55-3.23,6.05-2.79c3,0.53,0.73,3.01,1.35,4.47
			c0.06,0.14-0.01,0.33-0.01,0.5c0.05,4.48-1.53,10.16,0.62,13.09c2.06,2.79,8.1,0.66,12.38,0.88c1.97,0.1,3.9-0.03,3,2.88
			c-0.6,1.94,1.7,5.44-2.91,5.28c-3.49-0.12-6.99,0.07-10.48,0.02c-2.12-0.03-2.81,0.72-2.77,2.95c0.18,11.65-0.04,23.31,0.28,34.95
			c0.22,8.15,3.94,10.43,11.77,8.36c1.28-0.34,3.3-3.5,4.72,0.23c1.05,2.75,1.05,4.67-1.86,6.51c-7.07,4.48-14.72,5.05-22.5,3.46
			c-6.85-1.4-10.74-6.96-10.86-14.24C892.86,550.03,892.95,543.7,892.94,537.38z"/>
		<path class="st2" d="M1329.57,537.4c0-6.16-0.23-12.33,0.09-18.47c0.17-3.37-0.86-4.85-4.19-4.73c-2.32,0.08-4.04-0.23-4.4-3.27
			c-0.34-2.93,1.13-3.49,3.33-4.44c7.7-3.3,12.7-9.58,16.49-16.7c1.56-2.93,3.59-3.32,6.02-2.74c2.66,0.64,0.79,3.06,1.19,4.63
			c0.12,0.47-0.02,0.99-0.01,1.49c0.12,4.12-1.24,9.37,0.8,12.03c1.91,2.5,7.47,0.77,11.4,0.67c3.28-0.08,3.85,1.25,3.78,4.12
			c-0.06,2.63-0.09,4.24-3.6,4.24c-4.05-0.01-9.51-1.98-11.83,1.09c-1.94,2.57-0.53,7.69-0.54,11.68
			c-0.02,7.99-0.08,15.98,0.04,23.97c0.13,9.08,4.1,11.8,12.76,9.31c1.06-0.31,2.91-2.88,3.99-0.02c0.81,2.13,2.28,4.21-0.96,6.33
			c-7.66,5-15.79,5.94-24.3,3.6c-6.44-1.77-9.51-6.04-9.74-12.8c-0.22-6.65-0.05-13.31-0.05-19.96
			C1329.76,537.4,1329.67,537.4,1329.57,537.4z"/>
		<path class="st2" d="M704.08,648.28c9.98-10.9,22.39-11.01,30.01-0.94c6.91,9.13,5.06,26.32-3.62,33.7
			c-6.32,5.37-15.94,5.61-22.48,0.6c-0.84-0.64-1.5-2.15-2.83-1.33c-1.1,0.68-0.73,2.04-0.72,3.17c0.04,4.33-0.15,8.67,0.18,12.98
			c0.22,2.91-0.66,3.64-3.5,3.66c-8.15,0.06-8.15,0.19-8.15-7.95c0-15.65,0.1-31.3-0.08-46.95c-0.04-3.34,0.58-4.42,4.24-4.48
			C702.27,640.66,705.9,641.15,704.08,648.28z M726.22,662.87c0.18-8.27-3.81-13.36-10.57-13.5c-6.32-0.12-11.09,5.29-11.19,12.71
			c-0.11,7.61,4.69,13.28,11.22,13.29C721.89,675.38,726.05,670.45,726.22,662.87z M705.52,679.34c-0.28-0.29-0.54-0.57-0.8-0.84
			c-0.17,0.22-0.51,0.51-0.46,0.65c0.12,0.33,0.43,0.59,0.67,0.89C705.09,679.83,705.26,679.63,705.52,679.34z"/>
		<path class="st2" d="M1065.89,653.44c-1.37-18.62,15.55-37.08,39.04-30.39c8.05,2.29,13.04,8.1,15.7,15.99
			c0.72,2.13,0.35,3.11-2.09,3.02c-4.64-0.17-8.88,0.68-12.15-4.96c-3.97-6.83-14.8-6.89-21.27-1.77
			c-9.61,7.6-8.66,28.59-1.25,35.18c8.33,7.41,19.92,5.71,25.01-4.26c0.93-1.83,9.95-3.41,11.62-2.02c0.75,0.62,0.48,1.42,0.33,2.23
			c-1.92,9.95-11.46,18.09-21.84,18.58C1078.1,686.02,1065.92,674.39,1065.89,653.44z"/>
		<path class="st2" d="M1239.88,647.5c0-8.05,0.17-14.98-0.08-21.89c-0.11-3.13,0.82-3.89,3.87-3.83c7.38,0.14,7.38-0.03,7.38,7.11
			c-0.01,16.8,0.04,33.61-0.07,50.41c-0.01,2.02,1.65,5.52-2.99,4.98c-3.27-0.38-7.99,1.43-7.15-4.92c0.08-0.62-0.07-1.28-0.12-1.92
			c-0.43,0-0.94-0.12-1.02,0.02c-6.51,11.4-22.6,9.35-29.18-0.36c-7.72-11.4-4.33-29.65,7.2-35.22
			C1226,637.87,1233.42,639.18,1239.88,647.5z M1239.89,662.86c0.01-7.81-4.98-13.7-11.5-13.57c-5.73,0.11-10.29,5.57-10.36,12.43
			c-0.09,7.88,4.34,13.5,10.71,13.6C1235.43,675.42,1239.88,670.46,1239.89,662.86z"/>
		<path class="st2" d="M1313.15,532.99c0,7.98,0.01,15.96-0.01,23.94c-0.01,3.89,0.86,7.13,5.67,6.96c2.86-0.1,2.06,1.86,2.18,3.35
			c0.13,1.65-0.07,2.87-2.29,2.85c-9.81-0.07-19.62-0.07-29.43,0.02c-2.12,0.02-2.59-0.95-2.41-2.72c0.16-1.48-0.75-3.55,2.11-3.47
			c3.97,0.11,4.87-2.29,4.93-5.77c0.21-11.6,0.59-23.19,0.95-34.79c0.13-4.22-0.84-7.64-5.75-8.32c-2.37-0.33-2.21-2.04-2.22-3.73
			c-0.01-1.7,0.96-2.13,2.49-2.4c6.65-1.17,13.28-2.47,19.91-3.78c2.85-0.56,4.17-0.01,4.06,3.41c-0.26,8.14-0.08,16.29-0.08,24.44
			C1313.23,532.99,1313.19,532.99,1313.15,532.99z"/>
		<path class="st2" d="M660.77,533.79c0,8.16,0.02,16.32-0.01,24.48c-0.01,3.46,0.94,6.02,5.06,5.63c2.79-0.26,2.19,1.63,2.32,3.21
			c0.15,1.91-0.14,3.06-2.57,3.03c-9.66-0.11-19.32-0.08-28.98-0.01c-1.9,0.01-2.77-0.58-2.6-2.54c0.15-1.69-0.64-3.78,2.46-3.67
			c4.2,0.16,5.4-2.85,5.44-6.23c0.13-12.16,0.06-24.31,0.07-36.47c0.01-3.57-1.78-5.74-5.25-6.08c-2.23-0.22-2.68-1.16-2.73-3.16
			c-0.06-2.3,1.15-2.7,3-3.02c6.5-1.12,13.01-2.22,19.44-3.64c3.27-0.72,4.52-0.1,4.44,3.48c-0.2,8.32-0.06,16.65-0.06,24.98
			C660.78,533.79,660.78,533.79,660.77,533.79z"/>
		<path class="st2" d="M773.7,678.1c-4.22,5.8-9.66,7.55-16.23,7.02c-6.01-0.49-10.95-4.23-12.27-9.8
			c-1.32-5.55,1.46-11.3,6.86-14.16c5.4-2.86,11.35-3.2,17.25-3.79c3.85-0.38,4.8-2.42,2.78-5.76c-2.92-4.84-10.53-4.73-13.87,0.2
			c-1.73,2.55-8.26,4.44-10.65,3.11c-1.47-0.81-0.7-2.07-0.59-3.09c0.58-5.58,6.79-11.17,13.49-11.85c3.29-0.33,6.68-0.34,9.96,0.04
			c8.32,0.97,13.49,7.15,13.69,15.58c0.21,8.63-0.83,17.3,0.81,25.87c0.42,2.22-0.43,3.1-2.63,2.86c-0.82-0.09-1.68-0.15-2.49-0.03
			C775.31,684.97,772.64,683.79,773.7,678.1z M772.97,667.18c-0.15-1.19,0.48-3.15-1.68-2.76c-3.74,0.67-7.67,0-11.25,1.66
			c-2.58,1.19-3.52,3.25-3.27,6.06c0.27,3.12,2.45,4.2,4.96,4.63C766.84,677.64,772.83,672.42,772.97,667.18z"/>
		<path class="st2" d="M1091.8,746.41c0-8.99,0.13-17.97-0.07-26.95c-0.07-2.94,0.43-4.03,3.72-3.94c9.81,0.27,19.63,0.21,29.45,0.1
			c2.18-0.02,3.16,0.09,3.23,2.75c0.19,7.52,0.35,7.51-7.12,7.52c-1.66,0-3.33-0.09-4.99,0.04c-3.93,0.29-9.98-1.77-11.3,0.79
			c-1.97,3.83-0.63,9.34-0.8,14.13c-0.08,2.44,1.59,2.03,3.02,2.04c5.16,0.02,10.34,0.31,15.47-0.07c4.59-0.33,3.68,2.61,3.6,5.1
			c-0.07,2.34,1.24,5.54-3.46,5.19c-4.63-0.35-9.34,0.24-13.96-0.17c-4.17-0.37-4.96,1.29-4.74,4.99c0.3,5.14-0.09,10.32,0.16,15.47
			c0.14,2.95-0.93,3.54-3.65,3.56c-8.54,0.06-8.53,0.18-8.53-8.08c0-7.49,0-14.98,0-22.46
			C1091.81,746.41,1091.81,746.41,1091.8,746.41z"/>
		<path class="st2" d="M891.65,715.5c4.26,0,7.89,0.25,11.45-0.09c2.38-0.23,2.69,1.27,3.43,2.7c3.7,7.14,7.43,14.26,11.43,21.94
			c3.53-6.92,6.97-13.25,9.99-19.78c1.66-3.59,3.72-5.5,7.9-4.79c2.21,0.37,4.54,0.07,7.55,0.07c-3.12,5.76-5.55,11.38-8.98,16.31
			c-8.37,12.05-12.58,25.04-10.45,39.72c0.66,4.54-1.04,6.05-5.39,5.33c-1.46-0.24-3-0.13-4.48-0.01c-2.27,0.18-3.11-0.91-2.71-2.97
			c3.8-19.53-5.91-34.9-15.41-50.36C894.47,721.12,893.24,718.48,891.65,715.5z"/>
		<path class="st2" d="M759.39,770.29c-7.46,8.28-18.91,9.7-24.98,3.5c-5.87-6-4.39-15.87,2.97-19.93
			c5.22-2.88,10.98-3.38,16.75-4.06c1.6-0.19,4.29,1.75,4.79-1.59c0.48-3.16-0.97-5.58-3.75-6.95c-3.62-1.77-8.63-0.18-11,3.23
			c-1.43,2.05-8.75,3.67-10.54,2.25c-1.3-1.03-0.66-2.45-0.34-3.65c1.56-5.82,8.09-10.49,15.7-11.16
			c12.35-1.09,22.1,5.31,21.28,19.07c-0.44,7.44-0.75,14.98,0.65,22.43c0.44,2.31-0.02,3.96-3.01,3.53
			c-1.31-0.19-2.7-0.25-3.99-0.01C758.25,778.01,760.74,773.06,759.39,770.29z M753.87,757c-2.65-0.28-5.68,0.41-8.55,1.81
			c-2.6,1.27-3.35,3.6-2.89,6.2c0.44,2.56,2.19,3.7,4.87,3.93c5.19,0.46,8.5-2.08,10.67-6.35C760.35,757.9,759.71,757.02,753.87,757
			z"/>
		<path class="st2" d="M1321.36,757.41c-3.83,0-7.66,0.13-11.48-0.04c-2.81-0.13-3.93,0.47-3.12,3.61c0.92,3.58,2.85,6.09,6.34,6.95
			c3.82,0.95,8.03,1.11,10.54-2.43c3.21-4.54,7.51-2.02,11.31-2.48c1.32-0.16,1.05,1.25,0.64,2.22c-1.59,3.73-3.7,6.92-7.33,9.12
			c-8.38,5.1-21.29,3.71-27.62-3.19c-6.97-7.6-7.83-22.14-1.82-30.59c5.78-8.12,16.72-10.92,26.2-6.7
			c7.36,3.28,12.57,12.88,11.83,21.34c-0.2,2.3-1.48,2.2-3.01,2.2c-4.16,0.01-8.32,0-12.48,0
			C1321.36,757.43,1321.36,757.42,1321.36,757.41z M1326,749.89c-1.26-5.17-3.18-8.63-8.47-9.05c-4.6-0.37-8.23,0.94-10.27,5.25
			c-1.01,2.14-1.49,4.05,2.28,3.87C1314.84,749.69,1320.17,749.89,1326,749.89z"/>
		<path class="st2" d="M935.29,685.07c-13.57-0.01-22.92-9.36-22.77-22.77c0.15-13.38,9.52-22.4,23.28-22.39
			c13.06,0.01,22.27,9.32,22.25,22.51C958.05,675.97,948.89,685.08,935.29,685.07z M946.28,662.92c0.26-8.89-5.82-15.34-12.97-13.74
			c-5.89,1.32-10.01,7.96-9.18,14.78c0.87,7.13,5.97,12.31,11.76,11.93C942.02,675.49,946.06,670.45,946.28,662.92z"/>
		<path class="st2" d="M641.71,757.3c-3.99,0-7.98,0.07-11.97-0.03c-2.31-0.06-3.02,0.92-2.4,3.03c1,3.43,2.47,6.55,6.27,7.62
			c4.08,1.14,8.42,1.07,10.98-2.46c3.18-4.39,7.22-2.17,10.84-2.29c2.03-0.07,0.81,2.29,0.41,3.15c-2.63,5.59-7.07,9.51-13.08,10.54
			c-18.94,3.26-26.96-9.52-27-22.17c-0.04-12.76,8.76-23.09,21.52-22.78c14.14,0.35,20.5,11.22,19.9,23.38
			c-0.12,2.35-1.48,2.13-2.99,2.13c-4.16-0.01-8.32,0-12.47,0C641.71,757.38,641.71,757.34,641.71,757.3z M636.49,749.89
			c2.32,0,4.66-0.18,6.96,0.05c2.81,0.28,3.01-1.04,2.5-3.21c-1.25-5.39-9.26-8.11-14.29-4.78c-2.46,1.63-4.81,4.19-4.2,6.83
			c0.61,2.62,3.97,0.57,6.06,1.08C634.46,750.08,635.5,749.89,636.49,749.89z"/>
		<path class="st2" d="M983.21,754.57c0.02,13.38-9.17,22.8-22.19,22.74c-13.78-0.06-23.11-9.16-23.08-22.51
			c0.02-12.94,9.73-22.72,22.42-22.94C972.05,731.66,983.75,740.39,983.21,754.57z M949.86,754.38c0,6.91,2.46,11.32,7.47,13.03
			c4.58,1.57,8.5,0.02,11.6-3.45c4.05-4.52,4.07-13.72,0.09-18.45c-2.7-3.2-6.12-5.16-10.43-4.04c-4.72,1.22-7.66,4.36-8.49,9.26
			C949.88,752.02,949.92,753.36,949.86,754.38z"/>
		<path class="st2" d="M865.64,623.67c10.42-3.52,16.23,0.68,19.36,10.12c1.29,3.88,3.4,7.48,5.13,11.22c0.42,0.9,0.8,1.95,2,1.85
			c1.1-0.09,0.78-1.29,1.12-1.96c3.13-6.03,6.35-12.02,9.21-18.17c1.35-2.9,2.92-4.33,6.27-3.88c2.61,0.35,5.3,0.07,8.73,0.07
			c-2.51,4.67-4.79,8.93-7.09,13.18c-0.55,1.02-1.06,2.08-1.73,3.02c-8.7,12.02-12.65,25.3-10.55,40.13c0.6,4.2-0.95,5.33-5.09,5.14
			c-7.18-0.35-7.72-0.13-7.07-7.37c1.07-11.89-1.54-22.39-8.39-32.26C872.98,638.13,869.57,630.72,865.64,623.67z"/>
		<path class="st2" d="M1184.81,665.04c-4,0-8,0.1-11.99-0.03c-2.69-0.09-4,0.16-3.01,3.54c1.02,3.51,2.73,6.38,6.15,7.1
			c4.02,0.84,8.78,1.35,11.34-2.82c3.15-5.15,7.44-1.78,11.15-2.11c1.66-0.15,0.64,1.99,0.28,2.79c-1.44,3.21-3.47,6.03-6.48,8.03
			c-7.17,4.78-18.28,4.91-24.94,0.24c-6.95-4.86-11-15.48-9.13-23.81c1.92-8.54,6.34-15.04,15.17-17.32
			c7.41-1.92,14.51-1.2,20.41,4.43c5.06,4.83,6.46,10.92,6.32,17.65c-0.05,2.19-1.05,2.36-2.76,2.33
			C1193.14,664.99,1188.98,665.04,1184.81,665.04z M1179.18,657.65c0-0.01,0-0.01,0-0.02c2.15,0,4.33-0.18,6.46,0.04
			c4.34,0.45,3.79-1.7,2.51-4.36c-1.69-3.5-4.78-5.06-8.38-5.19c-3.68-0.14-6.73,1.63-8.78,4.73c-0.79,1.2-1.64,2.73-0.88,4.18
			c0.79,1.5,2.39,0.47,3.61,0.58C1175.52,657.77,1177.36,657.65,1179.18,657.65z"/>
		<path class="st2" d="M684.82,670.77c-3.95,13.43-15.01,16.01-25.8,13.77c-10.22-2.13-17.14-13.62-15.74-24.08
			c1.87-13.99,11.77-22.12,24.97-20.52c12.58,1.53,17.87,12.73,16.85,23.56c-0.23,2.42-2.25,1.48-3.52,1.5
			c-7.5,0.09-14.99,0-22.49,0.11c-1.31,0.02-3.38-1.01-3.85,0.95c-0.38,1.6-0.56,3.39,0.62,5.17c3.08,4.66,10.61,6.43,15.14,3.26
			C676.88,670.39,676.88,670.39,684.82,670.77z M664.05,657.68c0-0.01,0-0.03,0-0.04c1.49,0,3.07,0.29,4.47-0.07
			c1.85-0.48,4.74,1.85,5.43-1.21c0.63-2.76-1.31-5.04-3.61-6.6c-3.68-2.5-7.61-2.16-11.23-0.09c-2.52,1.44-4.11,4.38-3.7,6.98
			c0.36,2.23,3.37,0.65,5.16,1C661.69,657.86,662.88,657.68,664.05,657.68z"/>
		<path class="st2" d="M1018.43,768.96c-3.98,7.65-9.75,9-16.53,8.05c-5.35-0.75-10.03-5.37-10.94-11.33
			c-1.54-10.09-0.56-20.27-0.87-30.4c-0.05-1.76,0.63-2.18,2.27-2.4c8.77-1.2,9.48-0.63,9.5,8.15c0.02,6.16,0.16,12.32,0.15,18.48
			c-0.01,4.33,1.54,7.55,6.08,8.36c4.74,0.85,7.98-1.46,9.17-6.8c1.64-7.37,0.31-14.92,0.76-22.37c0.11-1.88-1.11-4.95,0.86-5.43
			c3.29-0.8,6.93-0.36,10.4-0.09c1,0.08,0.67,1.7,0.67,2.66c0.02,12.65-0.03,25.31,0.06,37.96c0.02,2.31-0.63,3.13-3.07,3.22
			C1019.32,777.32,1019.33,777.44,1018.43,768.96z"/>
		<path class="st2" d="M1243.84,770.18c-7.59,9.35-20.22,9.46-25.65,0.2c-1.62-2.76-2.32-5.79-2.31-9.01
			c0.04-8.15,0.17-16.3-0.06-24.44c-0.09-3.22,0.75-4.58,4.06-4.06c1.14,0.18,2.35,0.19,3.48,0c3.3-0.56,3.82,1.06,3.73,3.93
			c-0.2,6.15-0.02,12.3-0.08,18.46c-0.02,2.35,0.4,4.59,0.86,6.88c0.77,3.86,2.93,5.72,6.81,5.79c4.17,0.08,7.04-1.71,8.15-5.8
			c2.12-7.85,0.57-15.88,1.12-23.81c0.12-1.8-1.22-4.69,1.1-5.2c3.16-0.68,6.62-0.27,9.91,0.05c1.11,0.11,0.57,1.71,0.57,2.63
			c0.01,12.8-0.07,25.6,0.06,38.4c0.02,2-0.36,2.8-2.33,2.66c-0.5-0.03-1,0-1.5,0C1242.86,776.85,1245.05,777.76,1243.84,770.18z"/>
		<path class="st2" d="M993.49,677.54c-5.37,7.2-10.67,9.2-17.59,7.04c-6.59-2.06-9.84-6.78-9.97-14.85
			c-0.14-8.66-0.02-17.32-0.25-25.97c-0.07-2.55,0.8-2.91,3.07-2.96c8.32-0.17,8.32-0.26,8.32,7.82c0,5.99-0.06,11.99,0.02,17.98
			c0.08,5.87,2.81,9.2,7.42,9.31c5,0.12,8.18-3,8.45-8.96c0.32-7.15,0.47-14.32,0.25-21.47c-0.11-3.6,0.57-4.92,4.54-4.7
			c7.26,0.4,7.28,0.12,7.28,7.28c0,10.66-0.13,21.32,0.09,31.97c0.07,3.45-0.78,4.55-4.36,4.36
			C994.22,684.03,994.21,684.26,993.49,677.54z"/>
		<path class="st2" d="M1163.84,770.25c-5.68,6.84-11.48,8.67-18.53,6.06c-6.28-2.32-9.37-7.53-9.4-15.93
			c-0.02-7.82,0.17-15.65-0.08-23.47c-0.11-3.28,0.84-4.53,4.09-4.03c1.14,0.17,2.35,0.18,3.49,0c3.56-0.59,3.87,1.18,3.87,4.22
			c-0.02,8.13-0.77,16.28,0.57,24.4c0.66,4.01,2.46,6.35,6.72,6.44c4.42,0.09,7.24-1.84,8.32-6.22c2-8.05,0.86-16.24,0.87-24.35
			c0-3.81,1.03-4.98,4.68-4.52c3.07,0.39,6.84-1.2,6.69,4.54c-0.3,11.64-0.07,23.3-0.11,34.95c-0.01,2.09,1,5.27-3.01,4.47
			c-2.8-0.56-7.57,2.67-7.76-3.62C1164.21,772.37,1164.02,771.54,1163.84,770.25z"/>
		<path class="st2" d="M684.13,777.27c-8.82-0.09-17.44-4.99-19.71-12.51c-2.7-8.94-3.03-18.05,3.94-25.66
			c6.49-7.08,14.6-8.81,23.58-6.05c5.94,1.82,9.68,6.2,11.81,11.97c1.06,2.89,0.38,4.22-3.05,4.08c-3.87-0.16-6.98,0.18-9.36-4.51
			c-2.99-5.92-12.2-4.5-15.38,1.89c-2.69,5.39-2.66,10.96,0.07,16.3c1.57,3.07,4.12,4.97,7.9,5.19c4.17,0.24,6.99-1.56,9.06-4.89
			c0.66-1.06,0.57-2.7,2.45-2.57c2.97,0.21,6,0.12,8.87,0.77c1.1,0.25-0.05,2.11-0.34,3.03
			C701.44,772.22,693.44,777.37,684.13,777.27z"/>
		<path class="st2" d="M1296.96,636.1c-1.43,4.64,1.6,5.28,5.65,4.72c3.27-0.45,4.66,0.42,4.51,4.16c-0.14,3.49-0.41,5.93-4.72,5.05
			c-4.74-0.96-5.84,1.23-5.47,5.56c0.37,4.29,0.01,8.64,0.1,12.97c0.1,5.14,2.09,6.94,7.17,6.24c1.77-0.24,3.22-0.95,3.02,1.79
			c-0.18,2.56,3.07,6-1.15,7.51c-10,3.6-21.17-2.28-20.27-13.49c0.45-5.62-0.04-11.31,0.12-16.96c0.07-2.6-0.38-4.19-3.43-3.68
			c-4.6,0.77-3.46-2.57-3.63-5.04c-0.17-2.54-0.12-4.76,3.45-4.1c2.79,0.52,4.02-0.57,3.58-3.45c-0.12-0.81-0.05-1.66-0.01-2.49
			c0.16-3.4-1.74-7.87,5.02-7.1C1296.49,628.43,1296.99,628.51,1296.96,636.1z"/>
		<path class="st2" d="M1193.62,720.84c4.65-1.22,6.21,0.67,5.43,4.99c-0.12,0.64,0.08,1.35-0.03,1.99
			c-0.72,3.99,0.6,5.92,4.91,5.08c4.17-0.81,5.2,1,5.16,5.1c-0.04,3.86-1.58,4.54-4.69,4.02c-4.18-0.69-6.01,0.54-5.48,5.22
			c0.5,4.44,0.07,8.98,0.12,13.48c0.07,5.2,1.38,6.78,6.6,6.1c5.46-0.71,3.21,3.59,4.14,5.63c1.19,2.63-0.64,3.89-3.06,4.29
			c-11.36,1.88-20.01-3.68-18.9-15.22c0.51-5.28-0.06-10.66,0.15-15.98c0.11-2.78-0.64-4.05-3.52-3.52c-4.21,0.78-3.5-2.16-3.52-4.6
			c-0.03-2.47-0.69-5.34,3.52-4.54c2.92,0.55,3.85-0.88,3.47-3.6c-0.11-0.82,0.09-1.68-0.03-2.49
			C1187.18,722.15,1188.25,719.26,1193.62,720.84z"/>
		<path class="st2" d="M826.95,646.75c2.99-4.3,6.58-6.75,11.65-6.88c2.39-0.06,3.84,0.33,3.5,3.19c-0.2,1.64-0.19,3.33-0.03,4.98
			c0.24,2.36-0.54,3.01-3,3.1c-8.41,0.31-11.9,4.05-12,12.38c-0.07,5.48-0.25,10.98,0.03,16.45c0.17,3.45-0.78,4.57-4.36,4.43
			c-7.05-0.27-7.06-0.06-7.06-6.95c0.01-10.97,0.18-21.94-0.09-32.91c-0.08-3.32,0.98-4.11,3.89-3.67c0.65,0.1,1.34,0.11,1.99,0
			C826.02,640.06,828.07,641.63,826.95,646.75z"/>
		<path class="st2" d="M723.11,745.44c0,9.15-0.13,18.3,0.07,27.45c0.07,3.27-0.85,4.57-4.17,4.04c-1.46-0.23-2.99-0.1-4.48-0.04
			c-1.7,0.07-2.71-0.17-2.7-2.38c0.08-19.46,0.05-38.92-0.02-58.39c-0.01-1.79,0.68-2.11,2.32-2.27c8.88-0.91,9-0.85,9,8.14
			C723.11,729.8,723.11,737.62,723.11,745.44z"/>
		<path class="st2" d="M1051.1,738.39c3.51-3.9,7.06-6.05,11.58-6.51c2.38-0.24,3.86,0.29,3.39,3.15c-0.19,1.14-0.14,2.34-0.02,3.49
			c0.33,3.15,0,4.82-4.2,4.83c-7.08,0.02-10.65,4.52-10.79,12.19c-0.1,5.83-0.15,11.67,0.04,17.49c0.1,2.92-0.51,4.46-3.82,3.9
			c-1.46-0.25-3.01-0.18-4.49-0.02c-2.51,0.28-3.01-0.81-2.98-3.15c0.12-12.66,0.11-25.33,0.02-37.99
			c-0.02-2.07,0.34-3.17,2.66-2.91c1.15,0.13,2.34,0.1,3.5,0C1049.57,732.57,1052.57,732.82,1051.1,738.39z"/>
		<path class="st2" d="M1277.28,738.48c2.93-3.86,6.56-5.9,10.98-6.56c2.41-0.36,4.31-0.1,3.8,3.2c-0.23,1.46-0.19,3-0.03,4.49
			c0.27,2.63-0.35,3.67-3.41,3.66c-7.61-0.02-11.33,3.89-11.58,11.79c-0.19,5.99-0.19,11.99,0.02,17.98c0.1,2.97-0.58,4.4-3.82,3.89
			c-1.46-0.23-3-0.13-4.49,0.01c-2.37,0.22-3.13-0.65-3.11-3.09c0.11-12.65,0.11-25.31-0.03-37.96c-0.03-2.48,0.82-3.26,3.12-3.01
			c0.99,0.11,2.02,0.15,2.99-0.01C1275.97,732.16,1278.07,733.56,1277.28,738.48z"/>
		<path class="st2" d="M1139.65,647.76c3.52-5.42,7.17-7.5,11.86-7.88c2.68-0.22,4.1,0.41,3.64,3.45c-0.22,1.46-0.22,3.01-0.02,4.47
			c0.37,2.61-0.57,3.28-3.18,3.32c-7.81,0.12-11.75,4.2-11.91,12.07c-0.12,5.64-0.15,11.3,0.04,16.94c0.1,2.97-0.31,4.35-3.91,4.19
			c-7.25-0.33-7.26-0.07-7.27-7.19c-0.01-10.3,0.16-20.6-0.09-30.89c-0.1-4,0.42-5.95,5.2-5.5
			C1137.84,641.1,1141.5,640.4,1139.65,647.76z"/>
		<path class="st2" d="M1025.68,647.03c2.7-2.95,4.01-4.7,6.02-5.65c2.77-1.31,6.54-2.82,8.47-1.06c2.35,2.13,0.72,6.26,0.74,9.52
			c0.01,1.78-1.67,1.12-2.7,1.2c-8.71,0.66-12.13,4.25-12.16,12.86c-0.02,5.49-0.16,10.98,0.06,16.45c0.13,3.13-0.49,4.29-4.04,4.07
			c-7.15-0.44-7.17-0.17-7.17-7.38c0-10.81,0.1-21.61-0.07-32.41c-0.05-2.93,0.48-4.43,3.73-3.77c0.8,0.16,1.67,0.13,2.49,0.01
			C1024.71,640.34,1027.24,641.02,1025.68,647.03z"/>
		<path class="st2" d="M1272.86,662.63c0,5.98-0.19,11.96,0.08,17.92c0.15,3.22-0.97,4.18-3.96,3.73c-1.14-0.17-2.34-0.17-3.48,0
			c-3.55,0.54-4.38-0.97-4.3-4.39c0.25-11.61,0.35-23.24,0.08-34.85c-0.09-3.73,1.12-4.35,4.44-4.24c7.12,0.25,7.13,0.08,7.14,7.38
			C1272.86,653,1272.85,657.81,1272.86,662.63z"/>
		<path class="st2" d="M791.12,755.12c0,6.15-0.15,12.3,0.08,18.44c0.1,2.64-0.64,3.72-3.26,3.33c-0.16-0.02-0.33-0.01-0.5,0
			c-7.47,0.22-7.47,0.22-7.47-7.09c0-10.96,0.14-21.93-0.08-32.89c-0.07-3.32,0.95-4.43,4.13-4.03c1.47,0.19,3,0.16,4.48,0
			c2.25-0.24,2.72,0.69,2.67,2.81C791.02,742.16,791.11,748.64,791.12,755.12z"/>
		<path class="st2" d="M793.97,662.48c0-5.98,0.17-11.96-0.07-17.92c-0.12-3.08,0.76-3.86,3.85-3.77c7.5,0.22,7.5,0.03,7.5,7.33
			c0.01,10.79-0.08,21.58,0.11,32.36c0.05,2.95-0.5,4.36-3.73,3.81c-1.45-0.24-3-0.23-4.47-0.02c-2.79,0.39-3.29-0.93-3.23-3.38
			C794.06,674.77,793.97,668.62,793.97,662.48z"/>
		<path class="st2" d="M1302.43,475.94c6.6,0,11.55,4.45,11.56,10.4c0.01,6-4.93,10.45-11.62,10.45c-6.55,0-11.39-4.44-11.5-10.55
			C1290.76,480.33,1295.7,475.93,1302.43,475.94z"/>
		<path class="st2" d="M649.54,475.94c6.76,0,11.63,4.29,11.59,10.22c-0.05,6-5.03,10.61-11.41,10.56
			c-6.78-0.05-11.58-4.29-11.71-10.33C637.88,480.67,643.1,475.94,649.54,475.94z"/>
		<path class="st2" d="M1329.01,677.94c-0.08,4.29-2.95,7.1-7.26,7.1c-4.46,0-7.43-3.13-7.22-7.63c0.19-4.1,3.5-7.22,7.52-7.06
			C1325.97,670.51,1329.08,673.9,1329.01,677.94z"/>
		<path class="st2" d="M1350.53,762.79c3.97,0.06,7.32,3.38,7.34,7.28c0.02,3.71-3.55,7.03-7.55,7.01
			c-4.29-0.02-7.47-2.99-7.47-6.97C1342.86,765.78,1346.07,762.72,1350.53,762.79z"/>
		<path class="st2" d="M800.39,634.72c-3.81,0.04-7.34-3.16-7.39-6.71c-0.05-3.5,3.55-7.07,7.1-7.03c3.81,0.04,7.03,3.27,6.99,7
			C807.04,631.49,803.87,634.69,800.39,634.72z"/>
		<path class="st2" d="M786.1,726.92c-3.77,0.15-7.05-2.91-7.14-6.68c-0.1-3.72,3.01-6.94,6.81-7.05c3.58-0.1,7.21,3.22,7.32,6.68
			C793.19,723.24,789.69,726.77,786.1,726.92z"/>
		<path class="st2" d="M1274.01,628.07c-0.08,3.61-3.52,6.8-7.26,6.73c-3.69-0.06-6.96-3.41-6.86-7.01c0.09-3.45,3.8-6.97,7.2-6.85
			C1270.68,621.06,1274.09,624.58,1274.01,628.07z"/>
		<path class="st3" d="M963.52,330.47c0.84-0.32,1.74-1.51,2.53-0.53c0.63,0.79-0.48,1.32-1.14,1.75
			C964.44,331.28,963.98,330.87,963.52,330.47z"/>
		<path class="st0" d="M1255.97,535.88c-0.01,4.99-0.34,10.01,0.09,14.96c0.43,4.87-2.02,7.32-5.93,9.11
			c-4.07,1.86-7.72,1-11.14-1.6c-0.26-0.2-0.45-0.49-0.69-0.72c-8.09-8.07-8.63-33.17-0.89-41.6c4.25-4.62,13.49-5.03,17.79-0.84
			c1.16,1.13,0.74,2.46,0.75,3.72C1256,524.57,1255.97,530.22,1255.97,535.88z"/>
		<path class="st0" d="M777.37,507.51c0-5.66,0.1-11.33-0.04-16.99c-0.06-2.48,0.61-3.25,3.28-3.54
			c12.09-1.33,18.65,4.4,19.28,16.65c0.19,3.6,0.34,7.21-0.67,10.88c-2.59,9.48-9.22,14.25-19.09,13.49c-2.22-0.17-2.81-0.93-2.77-3
			c0.1-5.83,0.03-11.66,0.03-17.49C777.39,507.51,777.38,507.51,777.37,507.51z"/>
		<path class="st0" d="M857.95,547.99c0,10.39-2.13,13-10.16,13.04c-4.45,0.03-6.3-2.35-6.68-6.33c-0.59-6.17,2.86-11.11,9.38-13.62
			c7.46-2.87,7.46-2.87,7.46,4.91C857.95,546.66,857.95,547.33,857.95,547.99z"/>
		<path class="st0" d="M1176.62,529.04c-0.33,0-0.67,0-1,0c-9.89,0-9.85,0.01-6.64-9.77c0.91-2.77,2.36-5.07,4.56-6.93
			c2.94-2.48,8.65-1.55,10.71,1.99c1.06,1.82,1.7,3.94,2.21,6c1.89,7.7,1.06,8.71-6.85,8.71
			C1178.62,529.04,1177.62,529.04,1176.62,529.04z"/>
		<path class="st0" d="M604.13,641.97c0.01-9.08,0.01-9.08,10.59-8.92c6.52,0.1,10.33,3.59,10.28,9.44
			c-0.04,4.93-2.89,8.05-7.78,8.42c-1.32,0.1-2.66,0-3.99,0C604.13,650.9,604.13,650.9,604.13,641.97z"/>
		<path class="st0" d="M578.03,734.82c0-8.79,0-8.79,8.6-8.79c1.16,0,2.33-0.05,3.49,0c4.91,0.2,8.65,3.69,8.87,8.24
			c0.23,4.9-3.18,8.99-8.11,9.6c-1.31,0.16-2.65,0.03-3.98,0.03C578.04,743.92,578.04,743.92,578.03,734.82z"/>
		<path class="st0" d="M726.22,662.87c-0.17,7.57-4.32,12.5-10.54,12.5c-6.53,0-11.33-5.68-11.22-13.29
			c0.1-7.42,4.87-12.84,11.19-12.71C722.41,649.51,726.4,654.6,726.22,662.87z"/>
		<path class="st3" d="M705.52,679.34c-0.26,0.3-0.43,0.49-0.6,0.69c-0.23-0.29-0.55-0.55-0.67-0.89c-0.05-0.14,0.3-0.43,0.46-0.65
			C704.98,678.77,705.24,679.05,705.52,679.34z"/>
		<path class="st0" d="M1239.89,662.86c-0.01,7.6-4.45,12.57-11.15,12.46c-6.38-0.1-10.81-5.72-10.71-13.6
			c0.08-6.86,4.63-12.33,10.36-12.43C1234.91,649.16,1239.9,655.05,1239.89,662.86z"/>
		<path class="st0" d="M772.97,667.18c-0.14,5.24-6.13,10.46-11.23,9.58c-2.52-0.43-4.69-1.51-4.96-4.63
			c-0.24-2.81,0.7-4.86,3.27-6.06c3.57-1.66,7.51-0.99,11.25-1.66C773.46,664.03,772.82,666,772.97,667.18z"/>
		<path class="st0" d="M753.87,757c5.84,0.02,6.49,0.9,4.1,5.59c-2.17,4.27-5.48,6.81-10.67,6.35c-2.68-0.24-4.42-1.38-4.87-3.93
			c-0.45-2.6,0.29-4.93,2.89-6.2C748.18,757.42,751.21,756.72,753.87,757z"/>
		<path class="st0" d="M1326,749.89c-5.83,0-11.16-0.2-16.47,0.07c-3.76,0.19-3.29-1.73-2.28-3.87c2.05-4.31,5.67-5.62,10.27-5.25
			C1322.82,741.26,1324.74,744.71,1326,749.89z"/>
		<path class="st0" d="M946.28,662.92c-0.22,7.53-4.26,12.57-10.39,12.97c-5.79,0.38-10.89-4.8-11.76-11.93
			c-0.83-6.82,3.29-13.46,9.18-14.78C940.46,647.58,946.54,654.03,946.28,662.92z"/>
		<path class="st0" d="M636.49,749.89c-0.99,0-2.03,0.19-2.97-0.04c-2.08-0.5-5.45,1.54-6.06-1.08c-0.61-2.64,1.74-5.2,4.2-6.83
			c5.03-3.33,13.03-0.61,14.29,4.78c0.51,2.17,0.31,3.5-2.5,3.21C641.15,749.71,638.82,749.89,636.49,749.89z"/>
		<path class="st0" d="M949.86,754.38c0.06-1.02,0.03-2.36,0.24-3.66c0.82-4.9,3.77-8.03,8.49-9.26c4.31-1.12,7.73,0.84,10.43,4.04
			c3.99,4.73,3.96,13.93-0.09,18.45c-3.1,3.47-7.02,5.02-11.6,3.45C952.32,765.7,949.86,761.29,949.86,754.38z"/>
		<path class="st0" d="M1179.18,657.65c-1.82,0-3.66,0.12-5.46-0.04c-1.22-0.11-2.83,0.92-3.61-0.58c-0.76-1.45,0.08-2.98,0.88-4.18
			c2.05-3.1,5.1-4.87,8.78-4.73c3.6,0.14,6.69,1.69,8.38,5.19c1.29,2.66,1.84,4.82-2.51,4.36c-2.13-0.22-4.3-0.04-6.46-0.04
			C1179.18,657.63,1179.18,657.64,1179.18,657.65z"/>
		<path class="st0" d="M664.05,657.68c-1.16,0-2.36,0.18-3.48-0.04c-1.79-0.35-4.8,1.23-5.16-1c-0.41-2.6,1.18-5.54,3.7-6.98
			c3.63-2.08,7.55-2.42,11.23,0.09c2.3,1.56,4.23,3.84,3.61,6.6c-0.7,3.06-3.59,0.73-5.43,1.21c-1.4,0.36-2.97,0.07-4.47,0.07
			C664.05,657.65,664.05,657.66,664.05,657.68z"/>
	</g>
</g>
</svg>
