<?xml version="1.0" encoding="utf-8"?>
<!-- Generator: Adobe Illustrator 28.3.0, SVG Export Plug-In . SVG Version: 6.00 Build 0)  -->
<svg version="1.1" id="Camada_1" xmlns="http://www.w3.org/2000/svg" xmlns:xlink="http://www.w3.org/1999/xlink" x="0px" y="0px"
	 viewBox="0 0 1920 1080" style="enable-background:new 0 0 1920 1080;" xml:space="preserve">
<style type="text/css">
	.st0{fill:none;}
	.st1{fill:#142D49;}
	.st2{fill:#DA7707;}
	.st3{fill:#FEFEFE;}
</style>
<g>
	<g>
		<path class="st0" d="M960,801.93c-113.85,0-227.7-0.01-341.56,0.07c-2.81,0-3.45-0.63-3.44-3.44c0.08-172.71,0.08-345.41,0-518.12
			c0-2.81,0.63-3.44,3.44-3.44c227.7,0.08,455.41,0.08,683.11,0c2.81,0,3.45,0.63,3.45,3.44c-0.08,172.71-0.08,345.41,0,518.12
			c0,2.81-0.63,3.44-3.44,3.44C1187.7,801.92,1073.85,801.93,960,801.93z M984.27,745.78c37.11-0.69,86.72-21.35,126.76-62.8
			c44.73-46.31,63.73-102.19,58.33-166.38c-8.44-100.33-96.47-186.36-210.06-184.25c-115.99,2.16-207.69,94.38-204.84,210.58
			C757.15,652.62,848.21,746.91,984.27,745.78z"/>
		<path class="st1" d="M984.27,745.78c-136.06,1.13-227.12-93.16-229.82-202.85c-2.85-116.2,88.85-208.42,204.84-210.58
			c113.6-2.11,201.62,83.92,210.06,184.25c5.4,64.18-13.6,120.07-58.33,166.38C1070.99,724.43,1021.38,745.09,984.27,745.78z
			 M959.3,356.98c-5.67,0.7-12.06-0.13-18.54,1.27c-5.87,1.26-11.9,2.2-17.87,3.21c-8.31,1.41-16.17,4.58-24.18,7.23
			c-20.03,6.61-37.58,17.29-53.86,30.31c-11.4,9.12-21.02,20.02-29.7,31.68c-6.68,8.97-12.33,18.67-17.38,28.64
			c-11.75,23.21-17.25,48.12-18.34,73.92c-1.12,26.52,4.17,51.96,14.91,76.25c3.73,8.43,3.46,6.62,8.5,1.59
			c51.76-51.67,103.46-103.4,155.18-155.11c4.02-4.02,4.38-4.02,8.34-0.07c45.83,45.78,91.65,91.56,137.48,137.34
			c6.53,6.53,13.07,13.06,19.63,19.55c3.49,3.46,3.81,3.41,5.88-0.84c1.15-2.35,2.26-4.73,3.22-7.16
			c12.12-30.69,15.47-62.29,10.52-94.94c-4.58-30.19-16.43-57.17-34.63-81.5c-6.88-9.19-14.84-17.35-23.54-24.94
			c-12.86-11.23-26.58-21-42.01-28.38C1016.7,362.5,989.04,356.7,959.3,356.98z M963.67,721.2c3.25,0,6.49,0.08,9.74-0.01
			c21.41-0.64,41.57-6.55,61.18-14.68c1.53-0.64,3.46-1.37,3.5-3.48c0.04-2.26-2.05-2.66-3.6-3.26c-5.91-2.27-11.07-5.77-15.86-9.8
			c-8.16-6.88-7.99-14.55,0.26-21.34c3.95-3.25,7.93-6.47,11.38-10.28c11.79-13,11.55-32.1-0.67-44.7
			c-9.02-9.3-20.08-15.49-31.91-20.47c-11.84-4.98-23.89-9.55-34.91-16.28c-3.72-2.27-6.61-5.15-7.68-9.66
			c-1.12-4.7,0.84-8.34,3.61-11.65c4.65-5.54,9.49-10.92,14.28-16.34c1.18-1.33,1.94-2.82,0.75-4.35c-1.22-1.57-2.78-1.15-4.33-0.17
			c-7.58,4.81-15.26,9.48-22.78,14.38c-6.78,4.42-13.81,8.56-19.28,14.72c-5.8,6.52-5.99,13.88-0.53,20.65
			c2.86,3.54,6.41,6.27,10.28,8.59c8.57,5.12,17.19,10.14,25.72,15.32c4.2,2.55,8.01,5.68,10.15,10.23
			c2.96,6.3,0.23,12.56-7.04,18.23c-15.7,12.24-33.64,20.45-51.37,29.05c-13.38,6.49-26.51,13.41-38.44,22.38
			c-5.55,4.18-5.43,6.87,0.59,10.18C903.79,713.32,932.54,721.89,963.67,721.2z"/>
		<path class="st2" d="M959.3,356.98c29.74-0.28,57.4,5.52,83.63,18.06c15.43,7.38,29.15,17.15,42.01,28.38
			c8.69,7.59,16.66,15.75,23.54,24.94c18.19,24.33,30.05,51.31,34.63,81.5c4.95,32.65,1.6,64.25-10.52,94.94
			c-0.96,2.43-2.07,4.81-3.22,7.16c-2.07,4.25-2.39,4.3-5.88,0.84c-6.57-6.5-13.1-13.03-19.63-19.55
			c-45.83-45.78-91.66-91.56-137.48-137.34c-3.96-3.96-4.32-3.95-8.34,0.07c-51.72,51.71-103.42,103.44-155.18,155.11
			c-5.04,5.03-4.77,6.84-8.5-1.59c-10.75-24.29-16.04-49.73-14.91-76.25c1.09-25.81,6.59-50.71,18.34-73.92
			c5.04-9.97,10.7-19.66,17.38-28.64c8.68-11.66,18.3-22.56,29.7-31.68c16.28-13.02,33.83-23.7,53.86-30.31
			c8.01-2.64,15.86-5.81,24.18-7.23c5.96-1.01,12-1.95,17.87-3.21C947.24,356.85,953.63,357.68,959.3,356.98z"/>
		<path class="st3" d="M963.67,721.2c-31.13,0.69-59.89-7.88-86.95-22.75c-6.02-3.31-6.14-6-0.59-10.18
			c11.93-8.97,25.05-15.89,38.44-22.38c17.73-8.6,35.68-16.81,51.37-29.05c7.27-5.67,10.01-11.93,7.04-18.23
			c-2.14-4.55-5.95-7.67-10.15-10.23c-8.53-5.18-17.16-10.2-25.72-15.32c-3.88-2.32-7.42-5.04-10.28-8.59
			c-5.46-6.77-5.27-14.13,0.53-20.65c5.47-6.16,12.5-10.3,19.28-14.72c7.52-4.9,15.2-9.57,22.78-14.38
			c1.54-0.98,3.11-1.41,4.33,0.17c1.19,1.53,0.43,3.02-0.75,4.35c-4.79,5.42-9.64,10.79-14.28,16.34
			c-2.77,3.31-4.73,6.95-3.61,11.65c1.07,4.51,3.96,7.39,7.68,9.66c11.02,6.73,23.07,11.3,34.91,16.28
			c11.83,4.98,22.89,11.16,31.91,20.47c12.22,12.6,12.46,31.7,0.67,44.7c-3.45,3.8-7.43,7.03-11.38,10.28
			c-8.26,6.79-8.42,14.46-0.26,21.34c4.79,4.04,9.94,7.53,15.86,9.8c1.56,0.6,3.64,1,3.6,3.26c-0.04,2.11-1.97,2.84-3.5,3.48
			c-19.61,8.13-39.76,14.05-61.18,14.68C970.17,721.28,966.92,721.2,963.67,721.2z"/>
	</g>
</g>
</svg>
