<?xml version="1.0" encoding="utf-8"?>
<!-- Generator: Adobe Illustrator 28.3.0, SVG Export Plug-In . SVG Version: 6.00 Build 0)  -->
<svg version="1.1" id="Camada_1" xmlns="http://www.w3.org/2000/svg" xmlns:xlink="http://www.w3.org/1999/xlink" x="0px" y="0px"
	 viewBox="0 0 722.1 513.2" style="enable-background:new 0 0 722.1 513.2;" xml:space="preserve">
<style type="text/css">
	.st0{fill:none;}
	.st1{fill:#082E4A;}
	.st2{fill:#DA7216;}
</style>
<g>
	<g>
		<path class="st0" d="M-149.4,290.4c0-169.1,0-338.3-0.1-507.4c0-3.8,0.8-4.6,4.6-4.6c338.3,0.1,676.5,0.1,1014.8,0
			c3.8,0,4.6,0.8,4.6,4.6c-0.1,338.3-0.1,676.5,0,1014.8c0,3.8-0.8,4.6-4.6,4.6c-338.3-0.1-676.5-0.1-1014.8,0
			c-3.8,0-4.6-0.8-4.6-4.6C-149.4,628.7-149.4,459.6-149.4,290.4z M181.7,326.9c-4.1,4.6-8.1,9.3-12.4,13.6
			C125.9,384.3,82.5,428,39.1,471.7c-6,6-12,12-17.8,18.2c-2.5,2.6-4,6.1-2.2,9.6c1.5,3.1,5,2.7,8,2.7c66.3,0,132.6,0,198.9,0.3
			c13.1,0.1,25-3.1,36-10c17.1-10.7,34.6-20.4,52-30.6c16.5-9.7,32.5-20.3,46.1-34c12.4-12.5,11.9-24.4-1.4-35.8
			c-7.8-6.6-16.6-11.6-25.4-16.7c-12.9-7.3-25.7-14.7-35.7-26c-6.5-7.3-7.5-18.4-2-26.3c4.1-5.8,8.8-11.2,14.2-16
			c11.8-10.6,24.9-19.5,37.9-28.4c7-4.8,13.8-10,21.4-13.8c2.2-1.1,5-2,7,0c2,2.1,0.7,4.7-0.5,6.9c-2.5,4.7-5.7,9-9.1,13.1
			c-5.9,7.2-12.2,14.2-17.8,21.6c-7.8,10.4-6.3,19.3,3.8,27.2c4.8,3.7,10.1,6.3,15.5,8.9c18.7,8.8,38.3,15.3,56.3,25.6
			c18.1,10.5,35.3,22.2,46.9,40.2c10.2,15.7,9.5,29.9-2,44.7c-5.7,7.4-12.5,13.8-18.7,20.8c-3.7,4.1-7.3,8.2-9,13.6
			c-1.7,5.6,0.2,9.8,5.6,12.2c4.5,2,9.2,2.7,14.1,2.7c63.3,0,126.6,0,189.9,0c16.2,0,32.3,0,48.5-0.2c6.5-0.1,8.8-4.5,5.3-10.1
			c-1.3-2.1-3.1-3.9-4.8-5.7c-42.8-43.4-85.7-86.7-128.4-130c-9.7-9.8-19.6-19.4-28.3-30.1c3.2-4.7,4.9-10.2,7.1-15.4
			c15.4-36.2,21.4-73.7,15.8-112.8c-6.6-45.8-26.4-85.3-59.7-117.5C458,33.7,399.9,14.2,333.2,23c-44.6,5.9-83,26.1-114.7,57.9
			c-44.2,44.2-65.1,97.7-61.1,160.4C159.4,271.4,167.2,300.1,181.7,326.9z"/>
		<path class="st1" d="M543.3,326.2c8.7,10.7,18.7,20.3,28.3,30.1c42.8,43.4,85.6,86.7,128.4,130c1.8,1.8,3.5,3.6,4.8,5.7
			c3.5,5.5,1.2,10-5.3,10.1c-16.2,0.2-32.3,0.2-48.5,0.2c-63.3,0-126.6,0-189.9,0c-4.9,0-9.6-0.7-14.1-2.7
			c-5.3-2.4-7.3-6.6-5.6-12.2c1.7-5.4,5.3-9.5,9-13.6c6.2-6.9,13-13.4,18.7-20.8c11.4-14.8,12.1-29,2-44.7
			c-11.7-18.1-28.8-29.8-46.9-40.2c-17.9-10.3-37.6-16.9-56.3-25.6c-5.4-2.5-10.8-5.2-15.5-8.9c-10.1-7.9-11.6-16.9-3.8-27.2
			c5.6-7.4,11.8-14.4,17.8-21.6c3.4-4.1,6.6-8.4,9.1-13.1c1.2-2.2,2.5-4.8,0.5-6.9c-2-2.1-4.8-1.2-7,0c-7.6,3.8-14.4,9-21.4,13.8
			c-13,8.9-26.2,17.8-37.9,28.4c-5.3,4.8-10.1,10.2-14.2,16c-5.6,7.9-4.5,19,2,26.3c10,11.3,22.8,18.7,35.7,26
			c8.8,5,17.6,10,25.4,16.7c13.3,11.3,13.8,23.3,1.4,35.8c-13.6,13.7-29.5,24.3-46.1,34c-17.4,10.2-35,19.9-52,30.6
			c-11,6.9-22.8,10.1-36,10c-66.3-0.3-132.6-0.2-198.9-0.3c-3,0-6.5,0.4-8-2.7c-1.7-3.5-0.2-7,2.2-9.6c5.8-6.2,11.8-12.2,17.8-18.2
			c43.4-43.7,86.8-87.4,130.2-131.2c4.3-4.4,8.3-9.1,12.4-13.6c3.3-1.1,4.3-4.4,6.5-6.6c28.1-28,56-56.1,84.1-84
			c12.5-12.4,24.9-24.9,37.5-37.3c11.8-11.6,22.9-24.1,35-35.5c6.9-6.5,15.2-10.5,24.6-6.8c6,2.4,11.7,5.7,16.5,10.6
			c25,25.5,50.1,50.8,75.2,76.2c18.3,18.5,36.4,37.1,54.9,55.3C525.2,307.9,532.9,318.3,543.3,326.2z"/>
		<path class="st2" d="M543.3,326.2c-10.4-7.9-18.1-18.3-27.2-27.4c-18.5-18.3-36.6-36.9-54.9-55.3c-25.1-25.4-50.2-50.7-75.2-76.2
			c-4.8-4.9-10.5-8.2-16.5-10.6c-9.4-3.7-17.7,0.3-24.6,6.8c-12.2,11.3-23.2,23.8-35,35.5c-12.6,12.4-25,24.8-37.5,37.3
			c-28.1,28-56,56.1-84.1,84c-2.2,2.2-3.2,5.5-6.5,6.6c-14.4-26.8-22.3-55.5-24.2-85.7c-4-62.6,17-116.1,61.1-160.4
			c31.7-31.8,70.1-52,114.7-57.9c66.6-8.8,124.8,10.7,173.1,57.5c33.3,32.2,53.1,71.7,59.7,117.5c5.7,39-0.3,76.6-15.8,112.8
			C548.1,316,546.4,321.5,543.3,326.2z"/>
	</g>
</g>
</svg>
