<?xml version="1.0" encoding="utf-8"?>
<!-- Generator: Adobe Illustrator 28.3.0, SVG Export Plug-In . SVG Version: 6.00 Build 0)  -->
<svg version="1.1" id="Camada_1" xmlns="http://www.w3.org/2000/svg" xmlns:xlink="http://www.w3.org/1999/xlink" x="0px" y="0px"
	 viewBox="0 0 698.2 683.1" style="enable-background:new 0 0 698.2 683.1;" xml:space="preserve">
<style type="text/css">
	.st0{fill:none;}
	.st1{fill:#072A48;}
	.st2{fill:#DE7509;}
	.st3{fill:#FEFEFE;}
</style>
<g>
	<g>
		<path class="st0" d="M349.7,854.8c-169,0-337.9,0-506.9,0.1c-3.8,0-4.6-0.8-4.6-4.6c0.1-338.3,0.1-676.5,0-1014.8
			c0-3.8,0.8-4.6,4.6-4.6c338.3,0.1,676.5,0.1,1014.8,0c3.8,0,4.6,0.8,4.6,4.6c-0.1,338.3-0.1,676.5,0,1014.8c0,3.8-0.8,4.6-4.6,4.6
			C688.3,854.8,519,854.8,349.7,854.8z M350.8,679.7c0,0,0-0.1,0-0.1c63,0,126,0.3,188.9-0.2c21.3-0.1,42.7-0.3,63.6-5.6
			c49.1-12.4,81.8-47.9,88.1-101.3c2.5-21.7,2.3-43.6,2.5-65.4c0.6-110.6,0.6-221.3-0.1-331.9c-0.2-23.1,0.4-46.4-4.6-69.2
			c-10.4-47.1-38.9-78-85.1-92.2c-19.2-5.9-39.1-6.5-58.9-6.6c-59.5-0.3-119-0.2-178.4-0.2c-72.8,0-145.6,0-218.4,0.2
			c-21.5,0.1-42.9,2-63.4,9.7C56.5,27.7,34.5,45.7,20.7,73.1C9.4,95.4,5.6,119.4,5.4,144.1C4.6,270.9,4.6,397.7,5.1,524.5
			c0.1,18.5,0.1,37,3.3,55.3c9.1,52,47.5,89.1,99.6,96.3c19,2.6,38.2,3.5,57.3,3.5C227.1,679.9,289,679.7,350.8,679.7z"/>
		<path class="st1" d="M350.8,679.7c-61.8,0-123.6,0.2-185.4-0.1c-19.1-0.1-38.3-0.9-57.3-3.5c-52.1-7.2-90.5-44.3-99.6-96.3
			c-3.2-18.3-3.2-36.8-3.3-55.3C4.6,397.7,4.6,270.9,5.4,144.1c0.2-24.7,4-48.7,15.3-71.1C34.5,45.7,56.5,27.7,84.8,17
			c20.4-7.7,41.8-9.6,63.4-9.7C221,7,293.8,7.1,366.6,7.1c59.5,0,119-0.1,178.4,0.2c19.8,0.1,39.7,0.7,58.9,6.6
			c46.2,14.2,74.7,45.1,85.1,92.2c5,22.8,4.5,46,4.6,69.2c0.7,110.6,0.7,221.2,0.1,331.9c-0.1,21.8,0.1,43.6-2.5,65.4
			c-6.2,53.4-38.9,89-88.1,101.3c-20.9,5.3-42.3,5.4-63.6,5.6c-63,0.4-125.9,0.2-188.9,0.2C350.8,679.6,350.8,679.7,350.8,679.7z
			 M351.4,80.8c-31.4-0.6-61.7,4.6-90.8,16.3c-47.8,19.1-87.2,49.1-116.3,92c-7.3,10.7-13.5,22.1-18.8,33.8
			c-19.5,42.9-24.9,87.9-18.9,134.4c2.9,22.5,8.5,44.4,18.4,65c3.4,7.1,5.3,7.4,10.7,2c49.7-49.7,99.3-99.5,149.2-149
			c17.2-17.1,33.2-35.6,52.5-50.6c6-4.7,12.3-5.9,19.4-2.4c10.7,5.1,18.2,14.2,26.6,21.9c7,6.5,13.5,13.8,20.3,20.6
			c42.1,42.2,84.3,84.3,126.6,126.3c10.1,10,20.2,20,30.3,29.9c7.8,7.6,10.4,8.1,15-1.8c0.5-1,1-2.1,1.5-3.2
			c10.3-24.7,15.6-50.5,17-77c2.3-44.1-4.1-86.5-25.4-126.1c-10.2-19-21.5-36.9-36.3-52.6c-23-24.4-49.7-43.6-79.9-58
			c-8.7-4.1-17.9-7-27-10.1C401.5,84,376.7,80.3,351.4,80.8z M311,558.8c0,0.1,0,0.2,0,0.4c14.3,0,28.7,0,43,0
			c15.3-0.1,30.6-1.1,45.4-5.7c19.2-5.9,33.4-18.8,46.6-33.2c10.6-11.5,13.3-25,9.7-39.8c-3.2-13.3-12.1-23.1-21.9-32
			c-14.1-12.8-31-21.1-47.8-29.5c-14.1-7-29.1-12.5-41.9-22c-10.1-7.5-11.5-15.5-5.2-26.5c4.5-7.7,10.9-13.9,16.6-20.5
			c4.5-5.2,8.8-10.4,12.7-16.1c1.1-1.5,1.9-3.4,0.8-5.2c-1.1-1.9-3.2-1.2-5-1.1c-3.4,0.4-6.3,1.8-9.2,3.7
			c-11.8,7.5-22.9,16-34.2,24.3c-10,7.4-20.3,14.6-29,23.7c-13.4,14-11.7,28.6,4.4,39.4c7.3,4.9,14.9,9.5,22.5,13.8
			c10.7,6.1,21.7,11.8,30.7,20.4c9.4,9,10.5,19.7,3.4,30.6c-4.5,6.9-10.9,11.8-17.6,16c-27.2,17.1-56,31.4-83.8,47.3
			c-2.2,1.2-4.6,2-6.3,3.9c-1.3,1.4-2.1,3.1-1.3,5c0.7,1.8,2.3,2.2,4,2.3c3,0.2,6,0.6,9,0.6C274.7,558.9,292.8,558.8,311,558.8z"/>
		<path class="st2" d="M351.4,80.8c25.3-0.5,50.1,3.2,74,11.4c9,3.1,18.2,6,27,10.1c30.2,14.4,56.9,33.6,79.9,58
			c14.8,15.7,26.1,33.7,36.3,52.6c21.3,39.6,27.8,82,25.4,126.1c-1.4,26.5-6.8,52.3-17,77c-0.4,1.1-1,2.1-1.5,3.2
			c-4.6,9.8-7.2,9.4-15,1.8c-10.1-9.9-20.3-19.9-30.3-29.9C487.9,349,445.6,307,403.6,264.8c-6.8-6.8-13.3-14.1-20.3-20.6
			c-8.4-7.7-15.9-16.8-26.6-21.9c-7.1-3.4-13.4-2.3-19.4,2.4c-19.3,15-35.2,33.5-52.5,50.6c-49.9,49.5-99.5,99.3-149.2,149
			c-5.5,5.5-7.3,5.1-10.7-2c-9.9-20.6-15.5-42.5-18.4-65c-6.1-46.5-0.6-91.5,18.9-134.4c5.3-11.8,11.5-23.1,18.8-33.8
			c29.2-42.8,68.5-72.8,116.3-92C289.6,85.4,320,80.2,351.4,80.8z"/>
		<path class="st3" d="M311,558.8c-18.2,0-36.3,0-54.5,0c-3,0-6-0.4-9-0.6c-1.8-0.1-3.3-0.5-4-2.3c-0.8-2,0.1-3.6,1.3-5
			c1.7-1.9,4.2-2.7,6.3-3.9c27.9-15.9,56.7-30.2,83.8-47.3c6.7-4.2,13.1-9.2,17.6-16c7.1-10.9,6.1-21.6-3.4-30.6
			c-9-8.6-20-14.3-30.7-20.4c-7.7-4.4-15.2-8.9-22.5-13.8c-16.1-10.8-17.8-25.3-4.4-39.4c8.7-9.1,18.9-16.3,29-23.7
			c11.2-8.3,22.3-16.8,34.2-24.3c2.8-1.8,5.8-3.3,9.2-3.7c1.8-0.2,3.9-0.8,5,1.1c1,1.7,0.2,3.6-0.8,5.2c-3.8,5.6-8.2,10.9-12.7,16.1
			c-5.7,6.7-12.1,12.8-16.6,20.5c-6.4,11-4.9,19,5.2,26.5c12.8,9.5,27.8,15,41.9,22c16.8,8.4,33.8,16.7,47.8,29.5
			c9.8,8.9,18.7,18.7,21.9,32c3.6,14.8,0.9,28.3-9.7,39.8c-13.2,14.3-27.4,27.3-46.6,33.2c-14.8,4.5-30,5.6-45.4,5.7
			c-14.3,0.1-28.7,0-43,0C311,559.1,311,559,311,558.8z"/>
	</g>
</g>
</svg>
